<svg xmlns="http://www.w3.org/2000/svg" width="500" height="500" viewBox="0 0 500 500" version="1.1"><path d="M 249.500 89.006 C 246.618 89.734, 246.602 89.768, 249.083 89.882 C 253.093 90.065, 253.284 91.117, 249.832 93.999 C 247.223 96.177, 246.944 96.765, 248.276 97.276 C 249.418 97.714, 249.734 97.469, 249.342 96.449 C 248.999 95.554, 249.401 95, 250.393 95 C 251.277 95, 252 95.440, 252 95.979 C 252 96.574, 252.979 96.511, 254.500 95.818 C 255.875 95.192, 257 94.373, 257 94 C 257 93.627, 258.197 92.776, 259.659 92.109 C 261.721 91.170, 262.485 91.166, 263.058 92.095 C 263.520 92.841, 264.494 92.990, 265.649 92.491 C 267.408 91.730, 267.400 91.668, 265.500 91.230 C 264.400 90.976, 263.234 90.348, 262.909 89.833 C 262.237 88.768, 257 90.831, 257 92.161 C 257 94.007, 255.118 92.857, 254.820 90.828 C 254.445 88.283, 253.562 87.981, 249.500 89.006 M 233.823 89.511 C 233.620 89.713, 232.189 90.108, 230.641 90.389 C 229.093 90.669, 227.303 91.311, 226.663 91.815 C 224.797 93.285, 220.111 93.810, 219.611 92.605 C 219.296 91.847, 218.868 91.903, 218.246 92.784 C 217.731 93.514, 216.587 93.779, 215.596 93.398 C 213.747 92.689, 206.185 94.681, 204.500 96.321 C 203.849 96.955, 204.197 97.024, 205.500 96.519 C 206.600 96.092, 211.550 95.397, 216.500 94.974 C 221.946 94.508, 227.261 93.401, 229.959 92.169 C 232.411 91.050, 235.561 90.341, 236.959 90.595 C 238.356 90.849, 240.850 90.649, 242.500 90.151 C 245.131 89.357, 244.804 89.239, 239.845 89.194 C 236.735 89.166, 234.025 89.308, 233.823 89.511 M 276 91.129 C 276 91.608, 276.844 92, 277.875 92 C 278.906 92, 281.269 92.290, 283.125 92.644 C 284.981 92.998, 286.238 92.998, 285.918 92.645 C 284.934 91.559, 276 90.194, 276 91.129 M 287.500 92.851 C 288.050 93.398, 290.300 94.113, 292.500 94.440 C 295.181 94.840, 295.841 94.750, 294.500 94.167 C 290.952 92.624, 286.412 91.771, 287.500 92.851 M 252 94 C 252 94.550, 252.675 95, 253.500 95 C 254.325 95, 255 94.550, 255 94 C 255 93.450, 254.325 93, 253.500 93 C 252.675 93, 252 93.450, 252 94 M 298.500 96 C 301.278 97.194, 303.238 97.194, 302.500 96 C 302.160 95.450, 300.671 95.032, 299.191 95.070 C 296.788 95.133, 296.714 95.233, 298.500 96 M 351.800 96.200 C 352.733 97.133, 353.267 97.133, 354.200 96.200 C 355.133 95.267, 354.867 95, 353 95 C 351.133 95, 350.867 95.267, 351.800 96.200 M 199 97.563 C 197.075 98.291, 194.825 98.915, 194 98.950 C 191.836 99.041, 172.264 109.059, 165.367 113.606 C 158.316 118.254, 152.989 122.920, 153.030 124.411 C 153.047 125.010, 153.499 124.750, 154.034 123.833 C 157.162 118.472, 186.697 101.868, 198.302 98.946 C 200.886 98.295, 203 97.366, 203 96.881 C 203 96.397, 202.887 96.054, 202.750 96.119 C 202.613 96.185, 200.925 96.835, 199 97.563 M 304.083 97.355 C 305.250 98.349, 314 100.769, 314 100.098 C 314 99.668, 312.260 98.795, 310.134 98.158 C 306.409 97.042, 303.220 96.619, 304.083 97.355 M 343.694 100.639 C 342.895 101.438, 343.798 103, 345.059 103 C 345.577 103, 346 102.325, 346 101.500 C 346 99.954, 344.820 99.513, 343.694 100.639 M 231.104 104.092 C 228.687 105.164, 226.921 106.255, 227.181 106.514 C 227.441 106.774, 229.869 105.889, 232.577 104.546 C 238.436 101.641, 237.369 101.312, 231.104 104.092 M 319.479 102.966 C 319.830 103.535, 320.991 104, 322.059 104 C 323.127 104, 324 104.480, 324 105.066 C 324 106.786, 321.870 110.273, 319.603 112.265 L 317.500 114.113 319.709 113.043 C 321.722 112.068, 327 106.074, 327 104.763 C 327 104.085, 324.273 102.969, 321.170 102.377 C 319.730 102.102, 319.084 102.327, 319.479 102.966 M 339.446 103.087 C 339.077 103.685, 339.166 104.566, 339.645 105.045 C 340.828 106.228, 343.431 104.507, 342.569 103.112 C 341.696 101.698, 340.311 101.687, 339.446 103.087 M 222 108.836 C 220.075 109.802, 213.550 113.232, 207.500 116.458 C 201.450 119.684, 194.025 123.643, 191 125.256 C 185.590 128.141, 182.952 130, 184.270 130 C 184.638 130, 186.640 129.037, 188.720 127.860 C 190.799 126.683, 195.875 123.936, 200 121.757 C 216.825 112.866, 226 107.805, 226 107.414 C 226 106.839, 225.929 106.865, 222 108.836 M 223.190 113.002 C 218.619 115.751, 214.618 118, 214.298 118 C 213.978 118, 210.866 119.800, 207.383 122 C 203.899 124.200, 200.700 126.001, 200.275 126.003 C 199.849 126.005, 193.425 129.670, 186 134.147 C 178.575 138.625, 170.813 143.170, 168.750 144.248 C 166.392 145.481, 165 146.924, 165 148.136 C 165 149.196, 164.213 150.363, 163.250 150.731 C 162.287 151.098, 160.628 152.209, 159.561 153.200 C 158.495 154.190, 157.187 155, 156.654 155 C 156.121 155, 153.393 156.713, 150.592 158.807 C 141.695 165.459, 134.663 170.516, 129 174.336 C 121.141 179.636, 113.362 186.670, 114.303 187.624 C 114.744 188.072, 116.152 187.103, 117.430 185.470 C 118.709 183.836, 122.397 180.706, 125.627 178.514 C 128.857 176.321, 131.725 174.252, 132 173.916 C 132.654 173.117, 151.901 159.481, 159.159 154.674 C 162.272 152.613, 165.493 149.897, 166.317 148.639 C 167.611 146.664, 185.329 135.327, 196 129.646 C 197.925 128.621, 202.034 126.257, 205.131 124.391 C 208.228 122.526, 211.005 121, 211.302 121 C 211.599 121, 215.469 118.750, 219.903 116 C 224.337 113.250, 228.368 111, 228.860 111 C 229.352 111, 230.315 110.325, 231 109.500 C 232.839 107.284, 232.278 107.536, 223.190 113.002 M 330 109.500 C 329.315 110.325, 328.248 111.010, 327.628 111.022 C 326.116 111.052, 321.189 114.949, 322.628 114.978 C 323.248 114.990, 324.315 114.325, 325 113.500 C 325.685 112.675, 326.795 112, 327.467 112 C 328.140 112, 329.505 111.100, 330.500 110 C 331.495 108.900, 332.070 108, 331.777 108 C 331.485 108, 330.685 108.675, 330 109.500 M 346 116 C 346 116.550, 346.520 117, 347.155 117 C 347.810 117, 347.526 117.866, 346.500 119 C 345.505 120.100, 345.048 121, 345.485 121 C 346.572 121, 348.929 117.785, 348.968 116.250 C 348.986 115.563, 348.325 115, 347.500 115 C 346.675 115, 346 115.450, 346 116 M 266.667 118.667 C 265.200 120.133, 266.116 121.994, 268.250 121.884 C 270.054 121.791, 270.139 121.675, 268.677 121.297 C 267.604 121.019, 267.076 120.243, 267.395 119.413 C 267.982 117.882, 267.720 117.613, 266.667 118.667 M 349.872 123.661 C 348.614 125.183, 348.693 125.204, 350.815 123.911 C 352.923 122.627, 353.304 122.712, 355.065 124.861 C 356.129 126.159, 357 126.791, 357 126.266 C 357 125.031, 353.656 122, 352.294 122 C 351.717 122, 350.627 122.747, 349.872 123.661 M 146.249 127.303 C 142.312 131.175, 141.867 133.227, 145.750 129.604 C 147.262 128.192, 149.400 126.369, 150.500 125.551 C 151.969 124.459, 152.102 124.069, 151 124.085 C 150.175 124.097, 148.037 125.545, 146.249 127.303 M 359.783 128.230 C 360.866 129.542, 360.631 130.126, 358.283 131.963 L 355.500 134.142 358.779 132.339 C 362.123 130.499, 362.699 128.062, 360 127.170 C 358.752 126.758, 358.716 126.936, 359.783 128.230 M 139.140 134.957 C 137.980 137.181, 137.213 139, 137.434 139 C 138.200 139, 142.226 131.893, 141.738 131.404 C 141.468 131.134, 140.299 132.733, 139.140 134.957 M 176.750 133.572 C 173.012 135.600, 173.239 136.445, 177 134.500 C 178.650 133.647, 180 132.735, 180 132.474 C 180 131.831, 179.893 131.867, 176.750 133.572 M 350.962 137.072 L 347.500 140.144 351.250 137.453 C 354.564 135.076, 355.642 134, 354.712 134 C 354.554 134, 352.866 135.382, 350.962 137.072 M 392.494 139.006 C 390.395 141.326, 391.288 142.938, 393.798 141.357 C 395.658 140.186, 396.704 137, 395.228 137 C 394.723 137, 393.493 137.903, 392.494 139.006 M 130.724 142.590 C 128.770 145.182, 128.495 147, 130.059 147 C 130.641 147, 130.906 146.658, 130.648 146.239 C 129.910 145.045, 132.343 142.276, 134.525 141.826 C 136.464 141.427, 136.463 141.409, 134.474 140.862 C 133.096 140.483, 131.897 141.036, 130.724 142.590 M 161.500 143 C 159.850 144.093, 158.950 144.980, 159.500 144.971 C 160.503 144.955, 165.940 141.058, 165 141.029 C 164.725 141.020, 163.150 141.907, 161.500 143 M 368 143 C 366.625 144.076, 365.131 144.966, 364.680 144.978 C 364.229 144.990, 361.898 146.350, 359.500 148 C 357.102 149.650, 354.899 151, 354.605 151 C 354.310 151, 351.941 152.350, 349.339 154 C 346.737 155.650, 343.604 157, 342.377 157 C 339.806 157, 335.671 152.300, 336.451 150.266 C 336.741 149.513, 336.532 149.171, 335.989 149.507 C 335.445 149.843, 335 150.741, 335 151.503 C 335 153.668, 339.282 158.085, 341.500 158.207 C 343.495 158.317, 348.767 156.178, 352.434 153.770 C 358.542 149.760, 363.559 147, 364.739 147 C 365.481 147, 367.275 145.899, 368.726 144.554 C 370.177 143.208, 371.732 142.334, 372.182 142.613 C 372.632 142.891, 373 142.641, 373 142.059 C 373 140.421, 370.758 140.843, 368 143 M 340 145 C 338.075 146.620, 336.891 147.958, 337.368 147.973 C 337.845 147.988, 339.774 146.650, 341.653 145 C 346.066 141.125, 344.603 141.125, 340 145 M 372.592 146.500 C 371.691 147.875, 371.345 149, 371.822 149 C 372.807 149, 376 145.692, 376 144.671 C 376 143.155, 374.124 144.162, 372.592 146.500 M 239.500 147 L 233.500 147.664 239.750 147.832 C 243.362 147.929, 246 147.578, 246 147 C 246 146.450, 245.887 146.076, 245.750 146.168 C 245.613 146.261, 242.800 146.635, 239.500 147 M 202.302 147.746 C 207.693 147.926, 216.243 147.925, 221.302 147.744 C 226.361 147.563, 221.950 147.416, 211.500 147.417 C 201.050 147.418, 196.911 147.566, 202.302 147.746 M 255.287 147.740 C 258.469 147.939, 263.419 147.937, 266.287 147.736 C 269.154 147.535, 266.550 147.372, 260.500 147.374 C 254.450 147.376, 252.104 147.541, 255.287 147.740 M 280.153 147.453 C 280.512 147.830, 283.371 148.809, 286.505 149.628 C 294.082 151.606, 301.721 155.053, 308.743 159.663 C 315.349 163.999, 326.689 174.966, 329.513 179.750 C 330.568 181.537, 331.795 183, 332.239 183 C 333.354 183, 330.330 178.381, 325.691 173 C 317.259 163.219, 303.016 153.657, 291 149.710 C 285.166 147.794, 279.320 146.577, 280.153 147.453 M 375 149 C 373.180 150.424, 372.934 150.962, 374.095 150.978 C 374.972 150.990, 376.505 150.100, 377.500 149 C 379.810 146.447, 378.263 146.447, 375 149 M 126 149.500 C 126 150.325, 125.311 151, 124.469 151 C 123.626 151, 122.644 151.787, 122.286 152.750 C 121.512 154.829, 117.865 160.234, 116.628 161.134 C 116.149 161.483, 115.965 162.383, 116.220 163.134 C 116.497 163.949, 117.513 162.886, 118.738 160.500 C 120.939 156.213, 127.125 150.010, 129.223 149.985 C 130.110 149.974, 130.042 149.673, 129 149 C 126.874 147.626, 126 147.771, 126 149.500 M 184.796 181.301 C 184.617 201.739, 184.876 215.477, 185.450 216.051 C 186.703 217.302, 190.716 217.269, 191.500 216 C 191.840 215.450, 192.954 215, 193.976 215 C 194.997 215, 195.983 214.662, 196.167 214.250 C 196.754 212.928, 203.220 210.115, 214 206.492 C 219.775 204.551, 222.925 203.254, 221 203.610 C 215.621 204.606, 204.211 208.499, 197 211.800 C 185.187 217.207, 186.465 220.748, 186.738 183.378 C 186.877 164.320, 186.585 150.099, 186.034 149.140 C 185.426 148.082, 184.986 159.504, 184.796 181.301 M 379.643 151.500 C 378.818 152.325, 377.436 153, 376.571 153 C 375.707 153, 375 153.450, 375 154 C 375 154.550, 374.212 155.007, 373.250 155.015 C 371.770 155.028, 371.729 155.176, 372.986 155.970 C 374.008 156.616, 374.718 156.469, 375.262 155.496 C 375.697 154.719, 376.625 154.303, 377.324 154.571 C 378.024 154.839, 379.665 153.921, 380.972 152.529 C 383.471 149.870, 382.232 148.911, 379.643 151.500 M 380.192 155.963 C 378.373 156.979, 377.274 158.051, 377.750 158.346 C 378.227 158.640, 379.940 157.799, 381.558 156.476 C 385.067 153.609, 384.672 153.460, 380.192 155.963 M 137.559 157.532 C 136.491 158.339, 136.068 159, 136.618 159 C 137.168 159, 138.491 158.339, 139.559 157.532 C 140.626 156.724, 141.050 156.064, 140.500 156.064 C 139.950 156.064, 138.626 156.724, 137.559 157.532 M 385.404 158.389 C 385.110 159.156, 384.053 159.565, 383.048 159.302 C 382.046 159.040, 380.942 159.285, 380.595 159.847 C 380.220 160.453, 380.885 160.745, 382.232 160.566 C 385.418 160.142, 388 158.946, 388 157.893 C 388 156.474, 385.992 156.858, 385.404 158.389 M 155.499 163.776 C 147.388 168.091, 128 179.970, 128 180.625 C 128 181.266, 131.843 179.153, 136.680 175.852 C 138.979 174.283, 141.148 173, 141.500 173 C 141.852 173, 144.021 171.742, 146.320 170.203 C 148.619 168.665, 153.425 165.898, 157 164.054 C 164.170 160.355, 164.756 159.988, 163.417 160.026 C 162.912 160.041, 159.350 161.728, 155.499 163.776 M 163.184 163.851 C 161.910 165.143, 161.010 166.342, 161.184 166.514 C 161.760 167.086, 166.185 163.050, 165.839 162.268 C 165.653 161.845, 164.458 162.558, 163.184 163.851 M 384.500 163 C 383.400 163.473, 382.950 163.898, 383.500 163.945 C 384.050 163.992, 383.838 164.449, 383.029 164.961 C 382.220 165.473, 381.896 166.229, 382.309 166.643 C 382.723 167.056, 384.274 166.180, 385.758 164.697 C 388.495 161.960, 388.115 161.447, 384.500 163 M 406.543 162.931 C 405.860 164.036, 407.437 165.230, 408.361 164.306 C 409.311 163.355, 409.134 162, 408.059 162 C 407.541 162, 406.859 162.419, 406.543 162.931 M 390.500 165.765 C 389.950 166.169, 388.881 167.625, 388.125 169 C 386.823 171.367, 386.916 171.344, 389.875 168.563 C 391.594 166.948, 393 165.485, 393 165.313 C 393 164.748, 391.520 165.016, 390.500 165.765 M 400.500 167 C 399.505 168.100, 397.770 169, 396.645 169 C 395.175 169, 394.905 169.305, 395.685 170.085 C 396.464 170.864, 397.783 170.513, 400.372 168.835 C 402.354 167.551, 403.981 166.162, 403.988 165.750 C 404.010 164.375, 402.331 164.977, 400.500 167 M 160.307 171.336 C 158.551 172.526, 154.584 175.008, 151.492 176.852 C 148.400 178.695, 146.075 180.408, 146.326 180.659 C 146.576 180.910, 149.193 179.596, 152.141 177.741 C 155.088 175.885, 159.181 173.351, 161.235 172.111 L 164.969 169.856 164.852 180.462 C 164.787 186.295, 165.019 191.352, 165.367 191.701 C 165.715 192.049, 166 187.083, 166 180.667 C 166 167.852, 165.838 167.587, 160.307 171.336 M 109.338 172.250 C 108.909 172.938, 108.434 174.297, 108.282 175.271 C 108.023 176.932, 108.161 176.940, 110.503 175.406 C 112.942 173.808, 114.147 172.173, 111.830 173.605 C 111.043 174.091, 110.869 173.783, 111.299 172.664 C 112.040 170.731, 110.490 170.404, 109.338 172.250 M 147 174.929 C 143.975 177.046, 135.425 182.709, 128 187.512 C 113.617 196.816, 106 202.548, 106 204.067 C 106 205.722, 108.171 205.058, 108.671 203.250 C 109.165 201.464, 114.333 197.386, 121.500 193.125 C 127.881 189.333, 154 171.893, 154 171.425 C 154 170.400, 152.138 171.332, 147 174.929 M 393.923 175.250 C 393.881 175.387, 393.693 176.313, 393.504 177.306 C 393.227 178.764, 393.434 178.884, 394.580 177.933 C 396.226 176.568, 396.450 175, 395 175 C 394.450 175, 393.966 175.113, 393.923 175.250 M 397.200 179.200 C 395.555 180.845, 395.694 182.945, 397.494 183.636 C 398.316 183.952, 398.780 184.547, 398.525 184.960 C 398.269 185.373, 399.172 185.499, 400.530 185.239 C 403.585 184.655, 403.650 185.621, 400.778 188.936 L 398.556 191.500 401.401 188.854 C 404.376 186.087, 404.204 184, 401 184 C 398.563 184, 397.348 182.021, 399.114 180.930 C 400.063 180.343, 400.164 179.764, 399.442 179.042 C 398.719 178.319, 398.032 178.368, 397.200 179.200 M 122.212 183.602 C 116.727 186.872, 116.756 187.799, 122.250 184.835 C 127.620 181.938, 127.416 182.083, 126.878 181.545 C 126.628 181.295, 124.528 182.220, 122.212 183.602 M 135.230 187.088 C 127.170 192.212, 127.183 192.976, 135.250 188.265 C 142.747 183.888, 142.439 184.106, 141.897 183.563 C 141.656 183.323, 138.656 184.909, 135.230 187.088 M 333 184.339 C 333 184.590, 334.118 186.754, 335.484 189.148 C 336.850 191.542, 338.922 196.566, 340.087 200.314 C 341.252 204.061, 342.430 206.903, 342.705 206.628 C 343.825 205.508, 335.950 185.705, 333.874 184.422 C 333.393 184.125, 333 184.088, 333 184.339 M 396.746 195.017 C 395.232 196.535, 393.255 197.714, 392.354 197.638 C 391.453 197.562, 390.525 198.037, 390.293 198.693 C 389.771 200.169, 393.917 200.081, 395.937 198.573 C 397.082 197.718, 397.241 197.856, 396.719 199.250 C 396.358 200.213, 396.285 201, 396.556 201 C 396.827 201, 397.514 199.778, 398.082 198.284 C 398.931 196.050, 399.299 195.828, 400.152 197.034 C 400.984 198.210, 401.068 198.129, 400.577 196.623 C 400.241 195.591, 400.478 194.129, 401.105 193.373 C 403.285 190.747, 399.633 192.124, 396.746 195.017 M 121.215 196.032 C 118.858 197.664, 116.550 199, 116.087 199 C 115.624 199, 114.627 199.749, 113.872 200.664 C 112.627 202.173, 112.710 202.216, 114.760 201.123 C 119.897 198.386, 127.464 192.815, 125.750 193.032 C 125.612 193.049, 123.572 194.399, 121.215 196.032 M 154 199.050 L 151.500 201.055 154.250 199.867 C 155.762 199.214, 157 198.301, 157 197.839 C 157 196.699, 156.861 196.755, 154 199.050 M 160.250 199.220 C 159.012 199.817, 158 200.703, 158 201.188 C 158 202.214, 161.596 200.463, 162.503 198.995 C 163.234 197.813, 163.151 197.821, 160.250 199.220 M 232.500 201.578 L 226.500 202.820 233 202.278 C 239.760 201.713, 240.684 201.492, 239.317 200.768 C 238.867 200.530, 235.800 200.894, 232.500 201.578 M 248.250 200.739 C 251.412 200.937, 256.587 200.937, 259.750 200.739 C 262.913 200.541, 260.325 200.378, 254 200.378 C 247.675 200.378, 245.088 200.541, 248.250 200.739 M 266 200.871 C 266 201.290, 268.538 202.684, 271.640 203.970 C 274.743 205.256, 278.746 207.594, 280.537 209.167 C 287.460 215.245, 289.251 226.474, 284.499 234.001 C 283.045 236.305, 282.065 238.398, 282.320 238.654 C 282.576 238.909, 284.239 236.577, 286.017 233.471 C 288.812 228.586, 289.163 227.209, 288.624 223.271 C 287.784 217.148, 284.316 210.478, 280.429 207.514 C 276.724 204.687, 266 199.751, 266 200.871 M 408.136 201.668 C 407.959 204.486, 408.946 207, 410.229 207 C 410.911 207, 410.907 206.589, 410.218 205.750 C 409.654 205.063, 408.985 203.375, 408.732 202 C 408.332 199.823, 408.255 199.780, 408.136 201.668 M 145.939 204.344 C 140.886 207.402, 135.298 211.976, 136.597 211.989 C 137.200 211.995, 138.775 211.047, 140.097 209.882 C 141.419 208.718, 143.634 207.360, 145.021 206.864 C 146.407 206.369, 148.098 205.072, 148.779 203.982 C 149.460 202.892, 149.901 202.042, 149.758 202.094 C 149.616 202.146, 147.897 203.159, 145.939 204.344 M 149.176 206.471 C 143.103 210.578, 138.563 214.368, 142 212.461 C 144.050 211.324, 153.054 205.320, 155.453 203.490 C 159.643 200.294, 155.165 202.421, 149.176 206.471 M 342.737 208.750 C 342.528 209.162, 342.673 210.850, 343.060 212.500 C 343.752 215.450, 343.765 215.437, 343.882 211.750 C 343.994 208.189, 343.577 207.096, 342.737 208.750 M 132.557 213.582 C 131.490 214.362, 130.518 215.675, 130.397 216.500 C 130.092 218.579, 133.453 218.400, 135.079 216.250 C 136.206 214.761, 136.194 214.687, 135.002 215.750 C 132.725 217.780, 131.531 217.176, 133.506 214.994 C 135.747 212.517, 135.176 211.667, 132.557 213.582 M 411.250 215.500 C 411.250 216.855, 411.644 217.720, 412.125 217.423 C 412.606 217.125, 413 216.260, 413 215.500 C 413 214.740, 412.606 213.875, 412.125 213.577 C 411.644 213.280, 411.250 214.145, 411.250 215.500 M 162.667 217.289 C 160.601 221.642, 159.366 222.548, 157.549 221.041 C 156.495 220.166, 155.148 220.642, 151.593 223.147 C 149.067 224.928, 147 227.108, 147 227.993 C 147 228.877, 146.438 230.212, 145.750 230.961 C 145.063 231.709, 146.375 231.012, 148.666 229.411 C 150.958 227.810, 152.656 226.323, 152.441 226.107 C 152.225 225.892, 151.352 226.293, 150.500 227 C 149.648 227.707, 148.717 228.050, 148.430 227.763 C 148.143 227.476, 149.805 225.845, 152.125 224.140 C 155.321 221.789, 156.662 221.305, 157.666 222.138 C 158.648 222.953, 159.637 222.813, 161.495 221.595 L 164 219.954 164 224.895 C 164 229.544, 163.777 229.969, 160.250 232.061 C 145.280 240.938, 108.177 265.378, 97.879 273.146 C 91.222 278.167, 90.319 279.219, 90.748 281.462 C 91.018 282.874, 91.628 284.270, 92.104 284.564 C 92.580 284.859, 92.707 283.786, 92.386 282.181 C 91.842 279.462, 92.376 278.837, 100.151 273.072 C 104.743 269.668, 114.350 263.091, 121.500 258.457 C 128.650 253.824, 136.287 248.788, 138.472 247.266 C 144.336 243.181, 154.934 236.737, 159.500 234.478 C 164.581 231.965, 164.966 231.392, 164.985 226.309 C 164.993 224.004, 165.527 221.792, 166.171 221.394 C 166.940 220.919, 166.557 220.380, 165.057 219.825 C 163.193 219.136, 162.995 218.711, 163.980 217.524 C 164.645 216.723, 165.009 215.526, 164.788 214.865 C 164.568 214.204, 163.613 215.295, 162.667 217.289 M 344.328 222.500 C 344.333 226.350, 344.513 227.802, 344.730 225.728 C 344.946 223.653, 344.943 220.503, 344.722 218.728 C 344.501 216.952, 344.324 218.650, 344.328 222.500 M 231.250 219.101 C 229.463 219.627, 228 220.300, 228 220.596 C 228 220.892, 228.787 220.913, 229.750 220.642 C 230.713 220.371, 232.947 219.858, 234.716 219.503 L 237.933 218.856 237.849 233.073 L 237.765 247.291 246.616 247.078 C 258.098 246.802, 258.900 246, 247.695 246 L 239.056 246 238.778 232.250 C 238.468 216.938, 238.487 216.971, 231.250 219.101 M 213.585 224.523 C 207.582 226.396, 202.202 228.398, 201.629 228.971 C 201.056 229.544, 204.618 228.649, 209.544 226.983 C 214.470 225.316, 219.400 223.778, 220.500 223.564 C 223.549 222.970, 227.699 221.127, 226 221.122 C 225.175 221.119, 219.588 222.649, 213.585 224.523 M 416 225 C 416 225.550, 416.675 226, 417.500 226 C 418.325 226, 419 225.550, 419 225 C 419 224.450, 418.325 224, 417.500 224 C 416.675 224, 416 224.450, 416 225 M 142.573 228.521 C 141.513 229.323, 140.838 230.170, 141.073 230.404 C 141.308 230.637, 142.562 229.967, 143.861 228.914 C 146.596 226.696, 145.448 226.347, 142.573 228.521 M 136 233.089 C 134.339 234.448, 134.172 234.787, 135.500 234.101 C 138.762 232.415, 140.570 231.030, 139.500 231.038 C 138.950 231.041, 137.375 231.965, 136 233.089 M 190.751 233.692 C 188.139 235.146, 186.172 236.505, 186.380 236.713 C 186.973 237.306, 196 232.697, 196 231.801 C 196 230.736, 196.173 230.674, 190.751 233.692 M 342.810 236.500 C 342.585 238.425, 342.761 240, 343.201 240 C 343.640 240, 344 238.425, 344 236.500 C 344 234.575, 343.824 233, 343.609 233 C 343.395 233, 343.035 234.575, 342.810 236.500 M 415.358 237.491 C 415.823 238.703, 415.296 240.142, 413.778 241.800 L 411.500 244.288 414.250 242.529 C 417.092 240.711, 417.878 237.661, 415.830 236.395 C 415.023 235.896, 414.877 236.237, 415.358 237.491 M 122.028 241.549 C 117.555 244.707, 118.591 244.689, 124.148 241.512 C 126.542 240.144, 127.825 239.041, 127 239.061 C 126.175 239.081, 123.938 240.201, 122.028 241.549 M 341.684 242.382 C 341.308 243.362, 341.029 244.914, 341.063 245.832 C 341.105 246.937, 341.453 246.685, 342.092 245.086 C 342.623 243.758, 342.902 242.206, 342.712 241.636 C 342.522 241.067, 342.059 241.403, 341.684 242.382 M 275 243.736 C 273.075 244.601, 269.925 245.638, 268 246.039 C 264.999 246.666, 264.880 246.786, 267.167 246.885 C 269.767 246.997, 279 243.603, 279 242.536 C 279 241.893, 279.302 241.803, 275 243.736 M 185 307 C 185 341.833, 185.261 370.072, 185.580 369.753 C 186.262 369.072, 186.145 244.812, 185.463 244.129 C 185.208 243.875, 185 272.167, 185 307 M 106.441 251.596 C 100.973 255.224, 97.175 257.981, 98 257.722 C 100.268 257.012, 118.596 245, 117.412 245 C 116.845 245, 111.908 247.968, 106.441 251.596 M 339.416 249.607 C 335.103 262.539, 323.948 277.368, 312.255 285.712 C 308.764 288.203, 306.128 290.461, 306.396 290.730 C 306.841 291.175, 310.396 288.932, 315.455 285.014 C 319.423 281.942, 325.684 275.348, 329.718 269.994 C 334.205 264.039, 341.638 249.305, 340.652 248.319 C 340.320 247.986, 339.763 248.566, 339.416 249.607 M 99.519 261.555 C 96.779 263.450, 94.884 265, 95.308 265 C 95.732 265, 98.418 263.425, 101.276 261.500 C 104.135 259.575, 106.029 258.025, 105.487 258.055 C 104.944 258.085, 102.258 259.660, 99.519 261.555 M 91.148 262.009 C 89.417 263.663, 88.007 265.351, 88.015 265.759 C 88.048 267.338, 89.930 269.403, 90.667 268.667 C 91.093 268.240, 90.780 267.454, 89.971 266.920 C 88.770 266.128, 89.235 265.314, 92.500 262.490 C 94.700 260.587, 96.004 259.023, 95.398 259.015 C 94.792 259.007, 92.880 260.354, 91.148 262.009 M 148.336 264.455 C 144.723 266.026, 134.112 273, 135.333 273 C 135.777 273, 138.021 271.732, 140.320 270.183 C 142.619 268.634, 146.188 266.588, 148.250 265.636 C 150.313 264.685, 152 263.702, 152 263.453 C 152 262.859, 152.011 262.856, 148.336 264.455 M 141.534 278.964 C 139.972 280.595, 133.490 285.432, 127.131 289.714 C 117.789 296.004, 110.868 300.890, 103.083 306.690 C 102.854 306.860, 102.919 307.253, 103.228 307.562 C 103.537 307.871, 105.300 306.811, 107.145 305.208 C 108.990 303.604, 114.325 299.764, 119 296.673 C 123.675 293.583, 128.044 290.592, 128.708 290.027 C 129.372 289.462, 130.179 289, 130.502 289 C 131.415 289, 143.403 278.889, 144.300 277.362 C 145.568 275.202, 144.603 275.761, 141.534 278.964 M 363.769 279.956 C 363.078 282.417, 363.491 283.842, 364.581 282.753 C 364.900 282.433, 365.004 281.121, 364.810 279.836 L 364.459 277.500 363.769 279.956 M 92.535 289.250 C 92.917 291.038, 93.659 293.175, 94.184 294 C 94.882 295.099, 94.989 294.831, 94.582 293 C 94.277 291.625, 94.021 289.488, 94.014 288.250 C 94.006 287.012, 93.514 286, 92.921 286 C 92.227 286, 92.089 287.162, 92.535 289.250 M 297 294.558 C 286.877 299.068, 279.057 300.974, 270.040 301.131 L 262.500 301.262 268.322 302.007 C 272.507 302.542, 276.309 302.269, 281.841 301.035 C 289.732 299.276, 301.355 294.704, 303.964 292.331 C 305.850 290.617, 305.842 290.620, 297 294.558 M 95 297.714 C 95 299.175, 95.219 299.237, 97.418 298.393 C 99.629 297.545, 99.392 296.429, 97 296.429 C 95.900 296.429, 95 297.007, 95 297.714 M 239.250 301.662 C 238.563 301.940, 238.014 303.142, 238.032 304.333 C 238.061 306.347, 238.157 306.377, 239.392 304.750 C 240.123 303.788, 241.796 302.993, 243.110 302.985 C 244.425 302.976, 246.175 302.533, 247 302 C 248.099 301.289, 247.432 301.048, 244.500 301.094 C 242.300 301.129, 239.938 301.385, 239.250 301.662 M 253.264 301.718 C 254.784 301.947, 257.034 301.941, 258.264 301.704 C 259.494 301.467, 258.250 301.279, 255.500 301.286 C 252.750 301.294, 251.744 301.488, 253.264 301.718 M 330.500 303.588 L 327.500 306.165 330.750 304.015 C 332.538 302.832, 334 301.669, 334 301.432 C 334 300.683, 333.577 300.944, 330.500 303.588 M 400.236 306.715 C 397.340 308.689, 395.201 310.534, 395.482 310.815 C 395.762 311.096, 397.680 310.124, 399.744 308.656 C 403.727 305.822, 404.921 306.404, 402.901 310.195 C 401.784 312.290, 401.824 312.375, 403.336 311.128 C 404.251 310.373, 405 308.937, 405 307.937 C 405 306.936, 405.450 305.840, 406 305.500 C 407.165 304.780, 407.350 302.971, 406.250 303.063 C 405.837 303.097, 403.131 304.741, 400.236 306.715 M 322.187 308.500 C 320.893 309.988, 320.516 310.997, 321.257 310.992 C 321.940 310.988, 323.020 309.863, 323.656 308.492 C 325.101 305.376, 324.902 305.378, 322.187 308.500 M 100.043 309.448 C 99.138 310.539, 99.122 311.339, 99.979 312.698 C 100.678 313.806, 100.953 313.922, 100.693 313 C 100.461 312.175, 100.675 310.712, 101.170 309.750 C 102.263 307.626, 101.684 307.471, 100.043 309.448 M 140.742 312.914 C 136.633 315.549, 136.063 316.476, 139.687 314.634 C 141.439 313.743, 143.153 312.561, 143.496 312.007 C 144.297 310.710, 144.058 310.789, 140.742 312.914 M 152.429 314.250 C 148.955 317.944, 146.035 320.520, 137.500 327.422 C 125.875 336.822, 117.975 344.771, 118.610 346.427 C 119.372 348.412, 121.414 348.443, 123.357 346.500 C 124.182 345.675, 125.339 345, 125.929 345 C 126.518 345, 127 344.534, 127 343.965 C 127 342.777, 123.516 344.356, 122.497 346.005 C 121.699 347.295, 120 347.291, 120 345.999 C 120 344.882, 132.190 333.064, 134.956 331.500 C 139.514 328.922, 157.707 311, 155.766 311 C 155.612 311, 154.111 312.462, 152.429 314.250 M 388 315.036 C 384.975 317.157, 381.975 318.916, 381.333 318.946 C 380.692 318.976, 380.017 319.340, 379.833 319.757 C 379.650 320.173, 375 323.470, 369.500 327.084 C 364 330.697, 358.375 334.419, 357 335.355 C 355.625 336.291, 351.125 339.289, 347 342.018 C 342.875 344.747, 338.956 347.434, 338.292 347.990 C 337.628 348.545, 336.807 349, 336.467 349 C 335.262 349, 321.047 359.515, 321.024 360.424 C 321.011 360.933, 322.012 360.433, 323.250 359.314 C 324.488 358.194, 329.550 354.676, 334.500 351.496 C 341.835 346.784, 353.479 339.052, 364.822 331.362 C 365.745 330.736, 372.408 326.394, 379.629 321.712 C 386.850 317.031, 393.064 312.705, 393.438 312.100 C 394.370 310.592, 394.233 310.666, 388 315.036 M 101.031 315.518 C 101.080 317.061, 105.989 324.656, 105.995 323.197 C 105.998 322.480, 104.875 320.238, 103.500 318.215 C 102.125 316.191, 101.014 314.978, 101.031 315.518 M 398.727 318.727 C 397.812 320.746, 397.269 322.602, 397.519 322.852 C 397.769 323.102, 398.681 321.614, 399.545 319.545 C 401.592 314.648, 400.893 313.949, 398.727 318.727 M 128.694 320.268 C 126.123 322.045, 124.015 323.859, 124.010 324.298 C 124.004 324.737, 126.138 323.652, 128.750 321.886 C 134.673 317.883, 134.427 318.094, 133.851 317.518 C 133.586 317.252, 131.265 318.490, 128.694 320.268 M 303.055 321.959 C 296.426 326.905, 295.700 327.669, 299.500 325.700 C 302.575 324.107, 309.954 318.114, 308.931 318.041 C 308.617 318.018, 305.973 319.782, 303.055 321.959 M 238.194 330.667 L 238 341.834 226.250 348.167 C 219.787 351.650, 214.050 354.667, 213.500 354.870 C 210.713 355.902, 188.991 368.325, 189.349 368.682 C 189.578 368.911, 191.367 368.198, 193.324 367.099 C 197.268 364.884, 211.938 357.065, 227.950 348.645 C 233.930 345.500, 238.636 342.368, 238.950 341.324 C 239.253 340.321, 239.250 335, 238.944 329.500 L 238.387 319.500 238.194 330.667 M 108.038 328.500 C 108.073 329.735, 111.904 334.432, 112.435 333.892 C 112.647 333.676, 111.738 332.150, 110.415 330.500 C 109.092 328.850, 108.023 327.950, 108.038 328.500 M 286.861 332.976 L 284.500 334.952 287.242 333.726 C 288.750 333.052, 289.988 332.163, 289.992 331.750 C 290.004 330.602, 289.427 330.828, 286.861 332.976 M 132.184 339.145 C 129.810 340.826, 128.184 342.493, 128.571 342.851 C 128.957 343.208, 129.475 342.938, 129.720 342.250 C 129.966 341.563, 130.598 341, 131.125 341 C 131.652 341, 133.062 340.089, 134.257 338.975 C 135.452 337.862, 137.031 337.182, 137.767 337.464 C 138.502 337.746, 138.829 337.532, 138.493 336.989 C 137.601 335.546, 136.955 335.767, 132.184 339.145 M 385.257 338.766 C 380.695 341.706, 379.782 343.131, 383 342.290 C 384.100 342.002, 385 342.247, 385 342.835 C 385 343.422, 379.720 349.887, 373.267 357.201 C 366.813 364.516, 362.392 369.825, 363.441 369 C 366.289 366.761, 387.086 342.753, 386.599 342.266 C 386.368 342.035, 387.556 340.531, 389.238 338.923 C 393.111 335.222, 390.893 335.134, 385.257 338.766 M 134.500 341.247 C 129.643 344.783, 122.400 351.975, 123.683 351.988 C 124.334 351.995, 127.834 349.075, 131.463 345.500 C 135.091 341.925, 137.934 339.014, 137.780 339.032 C 137.626 339.049, 136.150 340.046, 134.500 341.247 M 366.028 342.549 C 361.460 345.774, 363.032 345.730, 367.785 342.500 C 369.809 341.125, 371.022 340.022, 370.482 340.049 C 369.942 340.076, 367.938 341.201, 366.028 342.549 M 265.238 344.465 C 265.618 346.450, 264.959 347.449, 261.855 349.601 C 258.407 351.990, 257.357 353, 258.319 353 C 258.495 353, 261.051 351.200, 264 349 C 267.363 346.491, 268.695 345, 267.574 345 C 266.395 345, 265.982 344.489, 266.362 343.500 C 266.678 342.675, 266.449 342, 265.852 342 C 265.238 342, 264.971 343.070, 265.238 344.465 M 371.573 348.521 C 370.513 349.323, 369.838 350.170, 370.073 350.404 C 370.308 350.637, 371.562 349.967, 372.861 348.914 C 375.596 346.696, 374.448 346.347, 371.573 348.521 M 352.500 351.051 C 350.850 352.172, 346.462 354.889, 342.750 357.089 C 335.787 361.215, 333.520 363.334, 339.228 360.382 C 342.961 358.452, 356 349.878, 356 349.353 C 356 348.752, 355.596 348.948, 352.500 351.051 M 121.644 358.123 C 117.392 362.041, 114.163 365.496, 114.467 365.800 C 114.772 366.105, 116.254 365.203, 117.760 363.796 C 119.267 362.389, 121.850 360.493, 123.500 359.582 C 126.077 358.161, 126.148 358.023, 124.008 358.608 C 121.768 359.219, 121.656 359.119, 122.899 357.622 C 123.729 356.621, 125.125 356.160, 126.391 356.468 C 127.551 356.751, 127.905 356.712, 127.177 356.383 C 126.178 355.931, 126.405 355.198, 128.101 353.392 C 132.451 348.762, 129.291 351.078, 121.644 358.123 M 362.113 354.750 C 359.164 356.813, 354.332 360.075, 351.374 362 C 348.417 363.925, 335.795 372.475, 323.327 381 C 310.859 389.525, 300.180 396.685, 299.596 396.911 C 299.013 397.137, 298.005 397.812, 297.357 398.411 C 296.708 399.010, 293.663 401.214, 290.589 403.310 C 287.515 405.405, 285 407.529, 285 408.029 C 285 409.443, 288.284 407.879, 290.500 405.410 C 291.600 404.184, 301.500 397.153, 312.500 389.785 C 323.500 382.417, 336.325 373.730, 341 370.481 C 345.675 367.231, 353.740 361.741, 358.922 358.281 C 369.283 351.363, 369.755 351, 368.403 351 C 367.892 351, 365.061 352.688, 362.113 354.750 M 124.584 361.343 C 122.524 362.992, 122.029 363.900, 122.897 364.436 C 123.585 364.862, 124.903 364.493, 125.892 363.598 C 126.863 362.719, 128.158 362, 128.770 362 C 129.381 362, 130.134 361.592, 130.442 361.093 C 130.751 360.595, 130.032 360.440, 128.845 360.751 C 127.366 361.137, 126.912 360.951, 127.403 360.158 C 128.441 358.477, 127.860 358.722, 124.584 361.343 M 317.554 360.281 C 317.864 361.088, 312.489 365.011, 303.026 370.885 C 288.742 379.751, 281.775 384.211, 258.250 399.552 C 248.751 405.746, 245.758 409, 249.559 409 C 250.416 409, 250.896 408.641, 250.625 408.202 C 249.411 406.238, 252.913 403.798, 293.829 378.102 C 297.859 375.571, 304.621 371.224, 308.854 368.443 C 313.087 365.662, 317.319 363.091, 318.259 362.731 C 319.952 362.081, 319.676 359, 317.924 359 C 317.451 359, 317.284 359.576, 317.554 360.281 M 130.658 362.825 C 129.035 364.619, 129.328 366, 131.333 366 C 131.883 366, 132.037 365.704, 131.675 365.342 C 131.313 364.980, 131.528 364.069, 132.151 363.318 C 133.906 361.204, 132.535 360.751, 130.658 362.825 M 329.482 365.640 C 324.629 368.858, 322.675 370.669, 325.785 369.068 C 329.440 367.187, 335.364 363, 334.372 363 C 333.873 363, 331.672 364.188, 329.482 365.640 M 233.742 366.914 C 229.211 369.819, 229.215 370.390, 233.750 368.103 C 236.088 366.924, 238 365.743, 238 365.480 C 238 364.623, 236.557 365.109, 233.742 366.914 M 109.564 370.929 C 108.527 372.075, 107.897 373.230, 108.162 373.496 C 109.029 374.363, 112.287 371.360, 111.862 370.086 C 111.582 369.245, 110.842 369.517, 109.564 370.929 M 141.500 374.532 C 139.300 375.890, 136.914 376.781, 136.198 376.512 C 135.482 376.243, 135.154 376.440, 135.469 376.950 C 135.784 377.460, 135.245 378.341, 134.271 378.908 C 132.731 379.805, 132.712 379.943, 134.128 379.970 C 135.023 379.986, 136.315 379.325, 137 378.500 C 137.685 377.675, 138.752 376.998, 139.372 376.995 C 139.993 376.992, 141.850 375.883, 143.500 374.531 C 147.329 371.392, 146.585 371.393, 141.500 374.532 M 221.500 374.474 C 219.300 375.829, 217.812 376.952, 218.193 376.969 C 219.059 377.008, 226 372.947, 226 372.401 C 226 371.750, 225.691 371.893, 221.500 374.474 M 243 373.878 C 243 374.360, 243.675 375.315, 244.500 376 C 245.753 377.040, 246 376.896, 246 375.122 C 246 373.902, 245.362 373, 244.500 373 C 243.675 373, 243 373.395, 243 373.878 M 160.345 381.543 C 160.019 382.392, 160.004 383.337, 160.310 383.643 C 161.186 384.519, 163 383.034, 163 381.441 C 163 379.522, 161.092 379.596, 160.345 381.543 M 337.578 387.527 C 329.033 393.062, 327.884 394.199, 334.575 390.498 C 339.300 387.884, 346.130 382.989, 345 383.026 C 344.725 383.035, 341.385 385.061, 337.578 387.527 M 125.450 385.081 C 125.075 385.688, 123.681 385.886, 122.270 385.532 C 119.980 384.957, 119.898 385.041, 121.340 386.483 C 122.659 387.802, 123.262 387.853, 124.961 386.792 C 126.083 386.092, 127 385.177, 127 384.759 C 127 383.665, 126.226 383.826, 125.450 385.081 M 170 388.926 C 170 389.388, 170.787 390.011, 171.750 390.309 C 172.713 390.607, 175.975 392.038, 179 393.488 C 182.025 394.938, 184.006 395.625, 183.402 395.014 C 181.701 393.294, 170 387.979, 170 388.926" stroke="none" fill="#8e1618" fill-rule="evenodd"/><path d="M 233.593 90.150 C 234.088 90.952, 233.641 91.139, 232.155 90.751 C 230.968 90.440, 230.209 90.529, 230.467 90.947 C 231.412 92.476, 225.280 94.250, 216.500 94.988 C 211.550 95.403, 206.639 96.103, 205.586 96.542 C 204.111 97.157, 203.841 97.014, 204.410 95.920 C 204.816 95.139, 204.473 95.328, 203.648 96.341 C 202.599 97.627, 201.447 97.984, 199.823 97.525 C 198.258 97.083, 197.934 97.171, 198.831 97.793 C 199.809 98.473, 199.343 98.881, 197.072 99.336 C 195.373 99.675, 189.689 102.001, 184.440 104.503 C 179.190 107.006, 174.399 108.747, 173.793 108.372 C 173.165 107.984, 172.972 108.146, 173.344 108.748 C 174.043 109.879, 168.057 113.851, 164.934 114.328 C 163.899 114.486, 162.702 114.999, 162.276 115.468 C 161.849 115.937, 162.175 115.984, 163 115.574 C 163.825 115.163, 163.388 115.730, 162.028 116.835 C 160.668 117.940, 159.136 118.584, 158.623 118.267 C 158.111 117.950, 157.895 118.098, 158.144 118.595 C 158.393 119.093, 157.338 120.709, 155.799 122.186 C 154.259 123.664, 153 124.623, 153 124.318 C 153 123.558, 145.792 129.049, 144.282 130.959 C 143.612 131.807, 143.045 132.050, 143.022 131.500 C 143 130.950, 141.835 132.412, 140.434 134.750 C 139.033 137.088, 137.462 139, 136.943 139 C 136.424 139, 136 139.675, 136 140.500 C 136 141.325, 135.148 142, 134.107 142 C 132.360 142, 131.083 143.653, 130.437 146.750 C 130.294 147.438, 130.587 148, 131.088 148 C 132.881 148, 131.962 149.577, 130.087 149.719 C 129.034 149.798, 126.973 150.906, 125.506 152.181 C 124.040 153.457, 122.313 154.500, 121.670 154.500 C 121.026 154.500, 120.444 155.063, 120.375 155.750 C 120.306 156.438, 120.194 157.477, 120.125 158.059 C 120.056 158.641, 119.555 158.843, 119.011 158.507 C 118.424 158.144, 118.290 158.593, 118.681 159.612 C 119.066 160.615, 118.936 161.079, 118.368 160.727 C 117.813 160.384, 117.418 161.494, 117.448 163.313 C 117.481 165.350, 117.049 166.410, 116.250 166.250 C 115.563 166.113, 115 166.381, 115 166.847 C 115 167.313, 114.100 168.732, 113 170 C 111.900 171.268, 111 172.647, 111 173.065 C 111 174.216, 113.863 173.551, 115.864 171.935 C 116.842 171.146, 118.285 170.367, 119.071 170.205 C 119.857 170.042, 121.117 169.030, 121.872 167.955 C 122.627 166.880, 124.089 166, 125.122 166 C 126.155 166, 127 165.550, 127 165 C 127 164.450, 127.675 164, 128.500 164 C 129.325 164, 130 163.550, 130 163 C 130 162.450, 130.675 162, 131.500 162 C 132.325 162, 133 161.550, 133 161 C 133 160.450, 133.675 160, 134.500 160 C 135.325 160, 136 159.621, 136 159.157 C 136 158.694, 138.137 157.231, 140.750 155.907 C 143.363 154.583, 145.650 153.162, 145.833 152.750 C 146.017 152.338, 146.804 152, 147.583 152 C 148.363 152, 149 151.550, 149 151 C 149 150.450, 149.900 150, 151 150 C 152.100 150, 153 149.550, 153 149 C 153 148.450, 153.675 148, 154.500 148 C 155.325 148, 156 147.523, 156 146.941 C 156 146.359, 156.370 146.110, 156.822 146.390 C 157.274 146.669, 158.411 146.001, 159.348 144.906 C 160.286 143.811, 161.561 143.229, 162.181 143.612 C 162.870 144.038, 163.032 143.860, 162.595 143.155 C 162.203 142.520, 162.359 142, 162.941 142 C 163.523 142, 164.225 142, 164.500 142 C 164.775 142, 165.900 141.100, 167 140 C 168.100 138.900, 169.884 138, 170.965 138 C 172.045 138, 173.430 137.065, 174.042 135.922 C 174.702 134.689, 175.753 134.075, 176.629 134.411 C 177.458 134.729, 177.836 134.544, 177.493 133.989 C 176.935 133.086, 178.184 132.642, 179.570 133.250 C 179.884 133.387, 180.587 132.703, 181.132 131.729 C 181.677 130.755, 182.498 130.190, 182.957 130.473 C 183.415 130.757, 184.066 130.269, 184.404 129.391 C 184.764 128.450, 185.652 128.036, 186.560 128.385 C 187.409 128.711, 187.857 128.578, 187.556 128.091 C 186.858 126.961, 194.998 122.881, 196.320 123.698 C 196.864 124.034, 197.034 123.864, 196.697 123.319 C 195.926 122.072, 202.756 118.731, 204.223 119.638 C 204.834 120.015, 205.024 119.848, 204.659 119.257 C 203.843 117.936, 213.673 112.680, 215.198 113.622 C 215.809 114, 216.032 113.861, 215.693 113.312 C 215.076 112.314, 223.273 107.667, 225.650 107.667 C 226.345 107.667, 227.162 107.020, 227.465 106.230 C 227.804 105.347, 228.677 105.046, 229.728 105.449 C 230.669 105.810, 231.108 105.774, 230.703 105.370 C 229.789 104.456, 235.866 101.799, 237.110 102.568 C 237.607 102.875, 238.284 102.423, 238.614 101.563 C 238.944 100.704, 240.092 100, 241.166 100 C 242.240 100, 242.840 99.550, 242.500 99 C 241.977 98.153, 243.048 97.822, 245.566 98.052 C 245.877 98.080, 247.047 96.939, 248.166 95.516 C 249.645 93.635, 250.788 93.093, 252.350 93.530 C 253.844 93.948, 254.092 93.848, 253.165 93.204 C 252.430 92.694, 251.891 91.877, 251.966 91.389 C 252.199 89.871, 246.111 89.184, 241.902 90.253 C 239.042 90.979, 237.170 90.943, 235.381 90.128 C 233.479 89.261, 233.047 89.266, 233.593 90.150 M 266.214 91.963 C 265.427 93.164, 264.801 93.257, 263.353 92.388 C 261.493 91.272, 257 92.440, 257 94.039 C 257 94.434, 255.608 95.334, 253.908 96.038 C 251.327 97.107, 250.649 97.086, 249.813 95.910 C 248.973 94.728, 248.887 94.743, 249.280 96.005 C 249.761 97.549, 247.632 100.299, 246.688 99.354 C 246.399 99.065, 245.688 99.714, 245.109 100.797 C 244.530 101.879, 243.345 103.037, 242.476 103.371 C 241.405 103.782, 241.126 103.578, 241.609 102.739 C 242.002 102.057, 241.204 102.517, 239.837 103.759 C 238.470 105.002, 237.048 105.714, 236.676 105.342 C 236.304 104.971, 236 105.203, 236 105.858 C 236 106.513, 234.988 107.496, 233.750 108.042 C 232.512 108.587, 229.258 110.338, 226.517 111.932 C 223.776 113.526, 221.119 114.574, 220.612 114.260 C 220.106 113.947, 219.992 114.178, 220.360 114.773 C 221 115.808, 217.416 117.644, 215.676 117.173 C 215.222 117.051, 215.106 117.362, 215.417 117.865 C 215.986 118.787, 209.540 122.332, 207.294 122.333 C 206.631 122.333, 206.300 122.676, 206.559 123.095 C 207.049 123.888, 203.115 125.563, 201.676 125.173 C 201.222 125.051, 201.086 125.330, 201.372 125.793 C 201.951 126.730, 191.204 132.577, 189.289 132.368 C 188.623 132.295, 188.173 132.598, 188.289 133.042 C 188.618 134.302, 171.969 144.099, 170.764 143.354 C 170.079 142.931, 169.987 143.170, 170.510 144.015 C 171.109 144.985, 170.868 145.164, 169.612 144.681 C 168.668 144.319, 168.147 144.429, 168.454 144.926 C 169.384 146.430, 159.949 155.194, 158.146 154.503 C 157.274 154.168, 156.874 154.207, 157.257 154.590 C 158.226 155.560, 138.956 169.091, 137.706 168.318 C 137.127 167.960, 136.997 168.187, 137.405 168.845 C 138.052 169.894, 136.806 170.464, 134.676 170.094 C 134.222 170.015, 134.101 170.355, 134.407 170.849 C 134.712 171.344, 133.958 172.474, 132.731 173.360 C 122.225 180.952, 117.568 184.712, 117.179 185.917 C 116.881 186.843, 117.809 186.560, 119.854 185.104 C 121.577 183.877, 123.509 183.197, 124.148 183.591 C 124.870 184.037, 125.039 183.872, 124.595 183.155 C 123.958 182.124, 125.153 181.551, 127.250 181.882 C 127.662 181.947, 128 181.587, 128 181.082 C 128 179.945, 134.790 175.667, 136.594 175.667 C 137.319 175.667, 137.680 175.292, 137.397 174.833 C 136.893 174.018, 138.513 173.564, 140.500 173.965 C 141.050 174.076, 141.164 173.831, 140.754 173.420 C 139.724 172.390, 145.858 168.794, 147.215 169.633 C 147.871 170.038, 148.024 169.847, 147.595 169.155 C 146.948 168.106, 148.194 167.536, 150.324 167.906 C 150.778 167.985, 150.893 167.636, 150.580 167.130 C 149.861 165.966, 152.821 164.772, 154.245 165.651 C 154.921 166.069, 155.010 165.826, 154.490 164.985 C 153.891 164.015, 154.132 163.836, 155.388 164.319 C 156.332 164.681, 156.875 164.606, 156.595 164.153 C 156.315 163.700, 157.657 162.580, 159.577 161.665 C 163.902 159.602, 163.997 159.604, 164.015 161.750 C 164.028 163.246, 164.172 163.282, 165 162 C 165.860 160.669, 165.971 160.670, 165.985 162.009 C 165.999 163.389, 162.830 166.113, 161.413 165.940 C 161.086 165.900, 160.198 166.684, 159.441 167.683 C 158.683 168.683, 158.049 169.076, 158.032 168.559 C 158.014 168.041, 157.339 168.491, 156.532 169.559 C 155.724 170.626, 155.049 171.183, 155.032 170.795 C 155.014 170.408, 153.855 171.236, 152.456 172.635 C 150.986 174.105, 149.274 174.935, 148.404 174.601 C 147.564 174.279, 147.162 174.453, 147.496 174.993 C 148.298 176.292, 137.266 183.283, 135.823 182.391 C 135.153 181.976, 134.966 182.136, 135.366 182.783 C 136.065 183.914, 131.346 187.459, 122.500 192.450 C 119.750 194.001, 116.521 196.157, 115.324 197.240 C 114.067 198.378, 112.629 198.889, 111.920 198.450 C 111.129 197.962, 110.947 198.105, 111.409 198.853 C 111.804 199.492, 111.469 200.267, 110.662 200.576 C 109.856 200.885, 108.959 202.049, 108.668 203.161 C 108.161 205.100, 108.220 205.111, 110.070 203.437 C 111.131 202.476, 112.014 202.097, 112.030 202.595 C 112.047 203.093, 112.533 202.688, 113.111 201.695 C 114.143 199.921, 118.705 197.498, 120.324 197.863 C 120.778 197.966, 120.904 197.654, 120.606 197.171 C 120.067 196.300, 124.808 193.490, 126.250 193.825 C 126.662 193.921, 127 193.523, 127 192.941 C 127 192.359, 127.403 192.131, 127.895 192.435 C 128.388 192.740, 129.059 192.288, 129.388 191.431 C 129.722 190.560, 130.498 190.190, 131.147 190.591 C 131.842 191.020, 132.040 190.874, 131.640 190.227 C 131 189.192, 134.584 187.356, 136.324 187.827 C 136.778 187.949, 136.915 187.671, 136.629 187.208 C 136.343 186.746, 137.434 185.584, 139.054 184.627 C 140.674 183.670, 142 183.223, 142 183.635 C 142 184.046, 142.708 183.509, 143.574 182.441 C 144.440 181.374, 144.816 181.175, 144.411 182 C 144.005 182.825, 144.759 182.366, 146.086 180.979 C 149.586 177.324, 155.774 173.742, 157.136 174.584 C 157.842 175.020, 158.042 174.878, 157.640 174.227 C 157.016 173.218, 160.558 171.355, 162.250 171.802 C 162.662 171.911, 162.887 171.464, 162.750 170.809 C 162.612 170.155, 163.287 169.447, 164.250 169.236 C 165.846 168.887, 165.987 169.896, 165.858 180.677 C 165.760 188.868, 165.496 191.271, 165 188.500 L 164.284 184.500 164.142 188.513 C 164.033 191.600, 163.386 192.984, 161.335 194.513 C 159.869 195.606, 158.073 197.091, 157.343 197.814 C 156.613 198.536, 155.492 198.804, 154.853 198.409 C 154.130 197.963, 153.961 198.127, 154.405 198.845 C 155.037 199.870, 153.865 200.442, 151.780 200.128 C 151.384 200.069, 150.574 200.928, 149.980 202.038 C 149.386 203.148, 148.477 203.795, 147.961 203.476 C 147.445 203.157, 147.270 203.541, 147.573 204.329 C 147.930 205.260, 147.137 206.113, 145.311 206.763 C 143.765 207.314, 141.401 208.733, 140.058 209.916 C 138.716 211.099, 137.028 211.841, 136.308 211.565 C 135.589 211.289, 135 211.576, 135 212.203 C 135 212.830, 134.255 214.165, 133.345 215.171 C 132.435 216.177, 132.183 217, 132.786 217 C 133.389 217, 134.148 216.570, 134.473 216.044 C 134.798 215.518, 135.725 215.341, 136.532 215.651 C 137.339 215.960, 138 215.792, 138 215.277 C 138 213.901, 146.658 207.914, 148.191 208.230 C 148.911 208.379, 149.369 207.882, 149.209 207.127 C 149.011 206.190, 149.477 205.969, 150.679 206.430 C 151.647 206.802, 152.131 206.797, 151.753 206.420 C 150.790 205.457, 155.758 201.733, 156.990 202.494 C 157.546 202.837, 158 202.489, 158 201.720 C 158 199.673, 162.575 197.773, 163.809 199.306 C 164.951 200.724, 164.844 215.947, 163.680 217.758 C 163.146 218.590, 163.630 219.297, 165.107 219.844 C 166.580 220.389, 166.943 220.917, 166.171 221.394 C 165.527 221.792, 164.993 224.004, 164.985 226.309 C 164.976 228.614, 164.639 230.950, 164.235 231.500 C 162.952 233.245, 150.942 239.082, 149.925 238.454 C 149.389 238.122, 149.074 238.447, 149.225 239.176 C 149.376 239.904, 148.730 240.440, 147.789 240.368 C 146.848 240.295, 146.173 240.580, 146.289 241.001 C 146.509 241.800, 138.551 247.825, 133.677 250.549 C 129.003 253.161, 108.924 266.573, 102.394 271.445 C 96.289 275.999, 94.253 277.018, 95.595 274.845 C 96.041 274.124, 95.869 273.963, 95.138 274.415 C 94.494 274.813, 94.195 275.506, 94.473 275.956 C 94.751 276.405, 94.289 277.345, 93.446 278.045 C 91.918 279.313, 91.763 284.947, 93.226 286.044 C 93.625 286.343, 94.075 288.703, 94.226 291.289 C 94.376 293.875, 94.950 296.061, 95.500 296.147 C 98.566 296.629, 99.628 296.406, 100.824 295.027 C 101.967 293.710, 102.058 293.706, 101.487 295 C 101.124 295.825, 101.755 295.375, 102.891 294 C 104.026 292.625, 104.979 291.950, 105.008 292.500 C 105.037 293.050, 105.525 292.703, 106.092 291.729 C 106.659 290.755, 107.545 290.219, 108.061 290.538 C 108.578 290.857, 109 290.641, 109 290.059 C 109 289.477, 109.337 289.104, 109.750 289.232 C 110.162 289.360, 111.527 288.572, 112.782 287.482 C 114.038 286.392, 115.388 285.500, 115.782 285.500 C 116.177 285.500, 117.529 284.471, 118.786 283.214 C 120.044 281.956, 121.468 281.171, 121.951 281.470 C 122.434 281.768, 122.980 281.664, 123.165 281.238 C 123.695 280.013, 133.531 274, 135.004 274 C 135.735 274, 136.031 273.697, 135.661 273.328 C 134.735 272.401, 143.132 266.964, 144.338 267.709 C 144.872 268.039, 145.017 267.837, 144.660 267.259 C 143.881 265.999, 146.736 264.719, 148.245 265.651 C 148.830 266.013, 149.020 265.841, 148.666 265.268 C 147.885 264.004, 151.314 262.958, 152.942 263.964 C 154.455 264.899, 153.949 267.085, 151.750 269.117 C 150.787 270.007, 150 271.218, 150 271.808 C 150 272.399, 149.480 273.203, 148.845 273.595 C 148.085 274.065, 147.942 273.829, 148.426 272.905 C 148.831 272.132, 148.019 272.850, 146.623 274.500 C 141.853 280.136, 138.644 282.898, 137.572 282.288 C 136.982 281.953, 136.805 282.019, 137.178 282.434 C 137.825 283.155, 131.948 289, 130.576 289 C 130.213 289, 129.372 289.465, 128.708 290.032 C 124.641 293.508, 109.464 302.787, 108.659 302.289 C 108.127 301.960, 107.975 302.150, 108.322 302.712 C 109.028 303.855, 106.304 306.666, 104 307.171 C 103.175 307.352, 101.984 308.381, 101.354 309.458 C 100.059 311.668, 100.883 314.623, 104.025 319.035 C 105.111 320.561, 106 322.439, 106 323.210 C 106 323.981, 107.110 326.116, 108.467 327.955 C 109.824 329.794, 110.721 331.642, 110.462 332.062 C 109.313 333.920, 115.585 332.004, 116.841 330.114 C 117.612 328.951, 118.816 328, 119.515 328 C 120.214 328, 121.056 327.296, 121.386 326.437 C 121.716 325.577, 122.439 325.153, 122.993 325.496 C 123.547 325.838, 124.010 325.529, 124.021 324.809 C 124.046 323.294, 131.626 317.667, 133.642 317.667 C 134.389 317.667, 135 317.265, 135 316.774 C 135 316.284, 135.450 316.160, 136 316.500 C 136.550 316.840, 137 316.653, 137 316.085 C 137 315.188, 141.549 312.286, 143.740 311.786 C 144.158 311.690, 145.400 310.756, 146.500 309.710 C 148.683 307.634, 152.267 306, 154.637 306 C 155.683 306, 156.055 306.839, 155.855 308.750 C 155.485 312.273, 152.174 317.226, 150.769 316.357 C 150.176 315.991, 149.963 316.132, 150.296 316.670 C 150.870 317.599, 138.682 329.373, 134.945 331.500 C 132.175 333.076, 120 344.888, 120 345.999 C 120 347.302, 121.702 347.291, 122.510 345.984 C 122.856 345.425, 123.627 345.269, 124.224 345.638 C 124.871 346.039, 125.021 345.844, 124.595 345.155 C 123.958 344.124, 125.153 343.551, 127.250 343.882 C 127.663 343.947, 128 343.572, 128 343.048 C 128 341.934, 136.360 336, 137.930 336 C 138.519 336, 139 336.470, 139 337.044 C 139 337.618, 138.264 337.955, 137.364 337.794 C 136.428 337.626, 135.609 338.252, 135.451 339.255 C 135.300 340.220, 135.593 340.751, 136.104 340.436 C 136.615 340.120, 136.731 339.373, 136.362 338.776 C 135.934 338.084, 136.163 337.983, 136.997 338.498 C 137.962 339.094, 137.420 340.025, 134.918 342.067 C 133.056 343.586, 131.076 344.571, 130.517 344.254 C 129.957 343.938, 129.834 344.048, 130.241 344.498 C 130.649 344.948, 130.424 345.993, 129.741 346.821 C 128.791 347.973, 128.780 348.419, 129.694 348.727 C 130.396 348.964, 129.598 350.281, 127.754 351.928 L 124.622 354.727 126.824 355.906 C 128.636 356.876, 128.838 357.435, 127.963 359.070 C 127.378 360.162, 126.403 360.749, 125.795 360.373 C 125.160 359.981, 124.972 360.146, 125.352 360.760 C 125.715 361.348, 125.447 362.047, 124.756 362.313 C 124.065 362.579, 124.481 362.749, 125.681 362.690 C 126.880 362.632, 127.673 362.279, 127.442 361.906 C 126.779 360.833, 130.633 360.155, 132.131 361.081 C 133.161 361.718, 133.205 362.195, 132.317 363.083 C 131.428 363.972, 131.715 364.858, 133.520 366.805 L 135.890 369.361 133.792 371.180 C 132.638 372.181, 131.286 373, 130.788 373 C 130.290 373, 130.160 373.450, 130.500 374 C 130.840 374.550, 130.447 375, 129.626 375 C 128.343 375, 126.707 377.799, 126.549 380.266 C 126.522 380.687, 125.171 381.904, 123.547 382.969 C 121.041 384.613, 120.854 385.007, 122.309 385.565 C 123.253 385.927, 124.695 385.668, 125.513 384.989 C 126.331 384.311, 127.007 384.148, 127.015 384.628 C 127.024 385.107, 127.457 384.825, 127.979 384 C 128.500 383.175, 129.393 382.444, 129.964 382.375 C 132.133 382.113, 132.209 381.957, 130.922 380.406 C 129.793 379.045, 129.954 378.543, 132.021 376.984 C 134.264 375.292, 136.608 375.207, 135.590 376.855 C 135.346 377.249, 135.992 377.571, 137.026 377.571 C 138.059 377.571, 138.703 377.369, 138.456 377.123 C 138.209 376.876, 139.441 375.802, 141.193 374.736 C 144.859 372.507, 149.497 371.387, 148.521 372.966 C 147.985 373.833, 150.571 374.494, 153.157 374.149 C 153.977 374.040, 153.699 376.091, 152.670 377.739 C 152.140 378.587, 152.385 378.789, 153.448 378.382 C 154.322 378.046, 155 378.313, 155 378.992 C 155 379.776, 156.192 379.494, 158.405 378.188 L 161.811 376.179 162.461 379.645 C 163.319 384.218, 165.123 385.827, 174.036 389.966 C 178.141 391.872, 182.210 394.010, 183.079 394.716 C 185.419 396.619, 187.394 396.291, 190.405 393.500 C 191.889 392.125, 193.723 391, 194.480 391 C 195.237 391, 196.512 390.345, 197.313 389.544 C 198.114 388.744, 200.733 387.081, 203.134 385.850 C 205.535 384.619, 207.865 383.015, 208.311 382.285 C 208.758 381.555, 209.545 381.219, 210.061 381.538 C 210.578 381.857, 211 381.615, 211 381 C 211 380.385, 211.403 380.131, 211.895 380.435 C 212.388 380.740, 213.059 380.288, 213.388 379.431 C 213.717 378.574, 214.439 378.153, 214.993 378.496 C 215.547 378.838, 216 378.566, 216 377.892 C 216 377.218, 216.279 376.945, 216.619 377.286 C 216.960 377.626, 217.896 377.247, 218.700 376.443 C 219.504 375.639, 220.644 375.280, 221.235 375.645 C 221.846 376.023, 222.021 375.843, 221.640 375.227 C 220.995 374.183, 223.637 372.773, 225.320 373.262 C 225.772 373.393, 226.587 372.703, 227.132 371.729 C 227.677 370.755, 228.545 370.219, 229.061 370.538 C 229.578 370.857, 230 370.686, 230 370.158 C 230 368.890, 236.920 364.832, 237.972 365.483 C 238.422 365.761, 239.050 365.312, 239.367 364.485 C 239.685 363.658, 240.294 363.070, 240.722 363.179 C 241.887 363.475, 249 358.940, 249 357.901 C 249 357.406, 249.694 357, 250.542 357 C 251.390 357, 253.033 356.116, 254.193 355.035 C 255.354 353.954, 256.685 353.305, 257.151 353.594 C 257.618 353.882, 258 353.703, 258 353.195 C 258 352.687, 259.735 351.070, 261.855 349.601 C 264.959 347.449, 265.618 346.450, 265.238 344.465 C 264.971 343.070, 265.238 342, 265.852 342 C 266.449 342, 266.692 342.788, 266.393 343.750 C 265.885 345.385, 265.923 345.384, 266.986 343.729 C 267.611 342.755, 268.553 342.223, 269.078 342.548 C 269.603 342.873, 269.820 343.482, 269.560 343.902 C 269.301 344.323, 269.723 344.667, 270.500 344.667 C 271.277 344.667, 271.700 344.324, 271.441 343.905 C 271.183 343.487, 271.877 342.856, 272.985 342.505 C 274.093 342.153, 275 341.446, 275 340.933 C 275 340.420, 275.482 340, 276.071 340 C 276.661 340, 277.822 339.321, 278.652 338.491 C 279.482 337.661, 280.575 337.237, 281.081 337.550 C 281.586 337.862, 282 337.641, 282 337.059 C 282 336.477, 282.430 336, 282.955 336 C 283.480 336, 285.058 334.851, 286.463 333.446 C 287.868 332.042, 289.463 331.168, 290.008 331.505 C 290.554 331.842, 291 331.632, 291 331.038 C 291 330.443, 292.238 329.413, 293.750 328.749 C 295.262 328.084, 296.748 327.201, 297.050 326.785 C 298.472 324.831, 308.384 318.119, 309.149 318.592 C 309.625 318.886, 310.284 318.423, 310.614 317.563 C 310.944 316.704, 311.733 316, 312.366 316 C 313 316, 314.081 315.100, 314.768 314 C 315.455 312.900, 316.741 312, 317.627 312 C 318.512 312, 320.579 310.538, 322.219 308.750 C 323.859 306.962, 324.838 306.168, 324.396 306.985 C 323.953 307.802, 325.868 306.799, 328.650 304.757 C 331.433 302.714, 333.929 301.263, 334.198 301.531 C 334.467 301.800, 335.854 300.938, 337.282 299.615 C 338.709 298.292, 340.201 297.500, 340.599 297.855 C 340.996 298.210, 341.034 297.998, 340.684 297.384 C 339.914 296.034, 343.488 292.566, 344.808 293.381 C 345.927 294.073, 350 290.740, 350 289.133 C 350 288.106, 351.327 287.586, 353.220 287.872 C 353.616 287.931, 354.426 287.072, 355.020 285.962 C 355.614 284.852, 356.497 284.189, 356.981 284.488 C 357.465 284.788, 358.162 284.548, 358.528 283.955 C 358.894 283.362, 360.276 282.466, 361.597 281.963 C 362.919 281.461, 364 280.363, 364 279.525 C 364 278.680, 364.869 278, 365.948 278 C 367.795 278, 370.687 275.875, 375.750 270.798 C 376.987 269.557, 378 268.845, 378 269.215 C 378 269.585, 379.427 268.584, 381.171 266.991 C 382.916 265.397, 384.669 264.295, 385.067 264.541 C 385.465 264.787, 386.048 264.316, 386.364 263.494 C 386.679 262.672, 387.573 262, 388.351 262 C 389.129 262, 391.565 260.200, 393.765 258 C 395.965 255.800, 398.230 254, 398.798 254 C 399.367 254, 401.979 252, 404.603 249.557 C 407.227 247.113, 409.668 245.295, 410.028 245.517 C 410.388 245.740, 411.753 244.477, 413.062 242.711 C 414.862 240.283, 415.473 238.107, 415.566 233.787 C 415.635 230.644, 415.310 228.308, 414.845 228.596 C 414.041 229.093, 413.591 227.201, 413.765 224.050 C 413.809 223.252, 413.200 221.354, 412.412 219.830 C 411.624 218.307, 411.038 216.709, 411.108 216.280 C 411.501 213.895, 410.857 212.841, 409.359 213.416 C 408.130 213.887, 407.971 213.725, 408.725 212.773 C 410.253 210.843, 408.612 200.469, 406.435 198.292 C 404.823 196.680, 398.976 197.719, 397.282 199.919 C 396.612 200.788, 396.049 200.997, 396.032 200.381 C 396.013 199.731, 394.742 199.409, 393 199.612 C 389.087 200.067, 389.165 198.239, 393.196 195 C 403.557 186.674, 405.298 184.327, 400.422 185.260 C 398.358 185.654, 397.615 185.229, 396.693 183.126 C 396.060 181.682, 394.961 180.135, 394.250 179.689 C 393.539 179.242, 393.200 178.486, 393.495 178.008 C 393.791 177.529, 393.575 176.856, 393.016 176.510 C 392.457 176.165, 392 176.359, 392 176.941 C 392 177.523, 391.100 178, 390 178 C 388.900 178, 388 178.352, 388 178.782 C 388 179.212, 386.850 179.659, 385.445 179.775 C 383.964 179.898, 383.148 179.569, 383.504 178.993 C 383.842 178.447, 384.991 178, 386.059 178 C 387.127 178, 388 177.523, 388 176.941 C 388 176.359, 388.453 176.162, 389.007 176.504 C 389.561 176.847, 390.284 176.423, 390.614 175.563 C 390.944 174.704, 391.841 174, 392.607 174 C 393.373 174, 394 173.523, 394 172.941 C 394 172.359, 394.450 172.160, 395 172.500 C 395.550 172.840, 396 172.416, 396 171.559 C 396 170.667, 395.145 170, 394 170 C 392.900 170, 392 170.450, 392 171 C 392 171.550, 391.137 172, 390.083 172 C 389.029 172, 387.933 172.563, 387.647 173.250 C 387.361 173.938, 387.237 173.499, 387.371 172.276 C 387.505 171.052, 387.927 169.740, 388.308 169.359 C 388.688 168.978, 388.993 167.954, 388.985 167.083 C 388.973 165.851, 388.784 165.792, 388.135 166.816 C 387.675 167.541, 386.670 168.228, 385.900 168.345 C 385.130 168.461, 383.994 168.873, 383.375 169.260 C 382.655 169.710, 382.250 169.070, 382.250 167.482 C 382.250 166.117, 382.670 165, 383.184 165 C 383.698 165, 383.840 164.550, 383.500 164 C 383.160 163.450, 383.250 163, 383.700 163 C 384.151 163, 385.110 162.053, 385.833 160.895 C 386.556 159.738, 386.664 159.089, 386.074 159.454 C 385.483 159.819, 385 159.609, 385 158.988 C 385 158.334, 384.337 158.520, 383.429 159.429 C 381.388 161.469, 380.682 161.411, 378.521 159.024 C 377.538 157.937, 376.339 157.290, 375.859 157.587 C 375.378 157.884, 374.277 157.420, 373.412 156.555 C 372.547 155.689, 371.392 155.258, 370.846 155.595 C 370.299 155.933, 370.444 155.262, 371.167 154.105 C 371.890 152.947, 373.160 151.964, 373.991 151.921 C 375.026 151.867, 375.106 151.683, 374.244 151.336 C 373.553 151.057, 373.242 150.418, 373.553 149.915 C 373.864 149.412, 373.406 149, 372.536 149 C 371.104 149, 371.100 148.777, 372.499 146.641 C 373.775 144.694, 373.814 144.090, 372.719 143.182 C 371.714 142.347, 370.750 142.677, 368.740 144.540 C 367.281 145.893, 365.481 147, 364.739 147 C 363.559 147, 358.542 149.760, 352.434 153.770 C 348.767 156.178, 343.495 158.317, 341.500 158.207 C 339.239 158.082, 335 153.652, 335 151.413 C 335 150.601, 335.672 149.679, 336.494 149.364 C 337.316 149.048, 337.770 148.438, 337.504 148.006 C 337.048 147.268, 343.163 142, 344.477 142 C 344.813 142, 346.275 140.899, 347.726 139.554 C 349.177 138.208, 350.802 137.377, 351.337 137.708 C 351.871 138.039, 352.017 137.837, 351.660 137.259 C 351.082 136.323, 352.088 135.494, 354.250 135.127 C 354.663 135.057, 355.916 134.084, 357.036 132.964 C 358.157 131.843, 359.467 131.171, 359.949 131.468 C 360.430 131.766, 360.732 131.378, 360.618 130.606 C 360.360 128.844, 357.880 125.787, 357.233 126.433 C 356.968 126.698, 355.937 125.922, 354.941 124.707 C 353.344 122.760, 352.874 122.656, 350.960 123.824 C 349.160 124.922, 348.919 124.922, 349.542 123.824 C 349.956 123.096, 349.325 123.497, 348.140 124.716 C 345.891 127.029, 343 126.830, 343 124.362 C 343 123.578, 343.672 122.679, 344.494 122.364 C 345.316 122.048, 345.771 121.439, 345.505 121.009 C 345.239 120.578, 345.695 119.668, 346.518 118.985 C 347.818 117.906, 347.658 117.413, 345.304 115.231 C 343.699 113.744, 342.440 113.181, 342.216 113.851 C 341.947 114.660, 341.281 114.686, 339.891 113.942 C 338.820 113.369, 338.255 112.396, 338.636 111.780 C 339.087 111.050, 338.749 110.882, 337.664 111.299 C 336.396 111.785, 336 111.364, 336 109.528 C 336 108.202, 335.480 106.797, 334.845 106.405 C 334.130 105.962, 333.962 106.130, 334.405 106.845 C 334.798 107.482, 334.560 108, 333.873 108 C 333.189 108, 331.646 108.924, 330.444 110.052 C 329.243 111.181, 327.332 112.175, 326.199 112.260 C 325.066 112.345, 324.220 112.855, 324.319 113.393 C 324.547 114.623, 319.232 115.185, 318.504 114.007 C 318.209 113.528, 318.803 112.544, 319.825 111.818 C 323.417 109.269, 325.211 104, 322.486 104 C 320.851 104, 316.869 102, 315.908 100.697 C 315.583 100.256, 314.908 100.019, 314.408 100.172 C 313.142 100.558, 304.001 97.879, 303.998 97.120 C 303.996 96.779, 302.599 96.450, 300.892 96.388 C 299.185 96.327, 297.499 95.877, 297.144 95.388 C 296.790 94.900, 295.030 94.433, 293.234 94.351 C 291.437 94.269, 289.187 93.885, 288.234 93.499 C 287.280 93.112, 284.270 92.607, 281.545 92.376 C 278.820 92.145, 276.345 91.583, 276.045 91.128 C 275.077 89.658, 267.291 90.319, 266.214 91.963 M 266.500 118.833 C 265.285 120.048, 266.171 122, 267.938 122 C 269.201 122, 269.828 121.361, 269.738 120.167 C 269.610 118.472, 267.663 117.670, 266.500 118.833 M 244.785 146.548 C 244.467 146.867, 231.335 147.135, 215.603 147.145 C 189.574 147.161, 186.999 147.313, 186.985 148.831 C 186.971 150.272, 186.839 150.295, 186.015 149 C 185.397 148.027, 184.963 159.368, 184.781 181.301 C 184.611 201.718, 184.876 215.478, 185.450 216.051 C 186.703 217.302, 190.716 217.269, 191.500 216 C 191.840 215.450, 192.954 215, 193.976 215 C 194.997 215, 195.983 214.662, 196.167 214.250 C 196.623 213.222, 202.440 210.479, 208.679 208.349 C 211.528 207.376, 213.665 206.267, 213.428 205.884 C 213.191 205.500, 213.968 205.440, 215.155 205.751 C 216.477 206.097, 217.070 205.923, 216.687 205.302 C 216.299 204.674, 217.057 204.479, 218.679 204.789 C 220.359 205.111, 221.064 204.913, 220.647 204.238 C 220.248 203.592, 220.726 203.377, 221.886 203.680 C 222.924 203.952, 224.058 203.715, 224.405 203.153 C 224.763 202.574, 226.612 202.387, 228.674 202.722 C 230.749 203.059, 232.070 202.923, 231.751 202.406 C 231.436 201.897, 233.176 201.658, 235.723 201.861 C 238.216 202.059, 240.015 201.834, 239.723 201.360 C 238.793 199.857, 265.303 200.313, 266.899 201.828 C 267.669 202.558, 269.132 202.937, 270.150 202.671 C 271.169 202.404, 271.789 202.532, 271.529 202.954 C 271.268 203.376, 272.864 204.537, 275.077 205.535 C 277.289 206.532, 280.384 208.812, 281.955 210.602 C 283.526 212.391, 285.151 213.550, 285.566 213.178 C 285.981 212.805, 286.027 213.015, 285.667 213.644 C 285.308 214.272, 285.603 216.522, 286.323 218.644 C 288.069 223.785, 287.463 229.295, 284.656 233.803 C 283.390 235.837, 282.056 238.306, 281.692 239.292 C 281.328 240.278, 279.226 241.892, 277.020 242.880 C 274.814 243.867, 273.193 244.861, 273.419 245.088 C 273.645 245.314, 271.955 245.630, 269.665 245.789 C 267.374 245.947, 265.350 246.510, 265.167 247.039 C 264.972 247.601, 259.374 247.922, 251.667 247.811 C 238.528 247.622, 238.519 247.621, 247.500 247 L 256.500 246.378 247.750 246.189 L 239 246 239 232.469 C 239 221.815, 238.703 218.823, 237.605 218.402 C 235.700 217.671, 228 219.832, 228 221.098 C 228 221.659, 227.596 221.868, 227.103 221.563 C 225.620 220.647, 219.975 222.150, 220.671 223.276 C 221.030 223.857, 220.824 224.009, 220.200 223.624 C 218.592 222.630, 213.893 224.018, 214.661 225.261 C 215.042 225.877, 214.827 226.011, 214.141 225.587 C 212.738 224.720, 201.730 227.755, 202.393 228.826 C 202.647 229.238, 201.676 229.673, 200.234 229.793 C 198.792 229.912, 197.256 230.570, 196.821 231.255 C 196.386 231.940, 196.024 232.153, 196.015 231.730 C 196.007 231.306, 194.184 231.886, 191.965 233.018 C 189.745 234.150, 188.194 235.504, 188.517 236.027 C 188.840 236.549, 188.461 236.730, 187.675 236.429 C 186.763 236.079, 186.037 236.717, 185.666 238.196 C 184.710 242.005, 185.029 370.706, 185.989 368.500 C 186.468 367.400, 186.891 367.001, 186.930 367.613 C 187.014 368.954, 189.492 368.787, 193.310 367.184 C 195.028 366.462, 195.843 365.554, 195.406 364.847 C 194.966 364.136, 195.129 363.962, 195.830 364.395 C 197.273 365.287, 215.270 355.630, 214.253 354.509 C 213.839 354.053, 214.042 353.990, 214.704 354.370 C 215.718 354.952, 235.718 345.289, 238.365 342.938 C 238.841 342.516, 239.132 337.294, 239.012 331.335 C 238.429 302.372, 238.190 303.457, 245.356 302.561 C 248.313 302.192, 256.755 301.964, 264.116 302.056 C 278.848 302.239, 285.466 301.083, 296.099 296.472 C 299.619 294.945, 303.232 292.883, 304.126 291.890 C 305.020 290.897, 306.007 290.340, 306.318 290.652 C 306.630 290.963, 308.373 290.163, 310.192 288.873 C 315.447 285.148, 316.933 283.701, 316.397 282.833 C 316.121 282.387, 316.508 282.258, 317.256 282.545 C 319.637 283.459, 334.776 265.064, 333.432 262.891 C 332.929 262.076, 333.116 261.954, 334.015 262.510 C 334.985 263.109, 335.164 262.868, 334.681 261.612 C 334.319 260.668, 334.421 260.142, 334.907 260.442 C 336.043 261.145, 337.213 258.154, 336.349 256.755 C 335.985 256.166, 336.159 255.981, 336.741 256.340 C 338.001 257.119, 339.281 254.264, 338.349 252.755 C 337.961 252.128, 338.165 251.984, 338.845 252.405 C 339.997 253.116, 340.480 251.383, 340.160 247.692 C 340.074 246.697, 340.404 246.132, 340.895 246.435 C 341.915 247.066, 343.338 242.356, 342.524 241.039 C 342.229 240.562, 342.421 240.020, 342.950 239.835 C 343.480 239.651, 344.163 234.100, 344.469 227.500 C 344.840 219.484, 344.705 216.164, 344.063 217.500 C 343.392 218.895, 343.285 217.713, 343.707 213.595 C 344.194 208.838, 344.054 207.849, 342.986 208.509 C 342.011 209.111, 341.837 208.867, 342.329 207.585 C 343.230 205.237, 342.052 200.850, 340.739 201.661 C 340.143 202.030, 339.987 201.831, 340.376 201.200 C 341.370 199.592, 339.982 194.893, 338.739 195.661 C 338.163 196.018, 337.983 195.837, 338.339 195.261 C 339.193 193.879, 336.477 187.477, 333.977 184.977 C 332.890 183.890, 331.978 182.662, 331.951 182.250 C 331.824 180.295, 327.879 174.957, 326.974 175.516 C 326.411 175.864, 326.074 175.553, 326.225 174.824 C 326.376 174.096, 325.904 173.624, 325.176 173.775 C 324.447 173.926, 324.139 173.583, 324.492 173.014 C 325.291 171.720, 319.367 165.655, 318.080 166.450 C 317.562 166.771, 316.813 166.506, 316.415 165.862 C 315.925 165.070, 316.146 164.952, 317.095 165.497 C 317.868 165.940, 316.700 164.677, 314.500 162.690 C 312.300 160.703, 309.943 159.269, 309.262 159.503 C 308.581 159.737, 308.131 159.441, 308.262 158.845 C 308.563 157.475, 297.750 151.832, 290.223 149.431 C 285.544 147.939, 281.033 147.596, 265.500 147.553 C 255.050 147.524, 246.244 147.156, 245.932 146.735 C 245.619 146.314, 245.103 146.230, 244.785 146.548 M 164.320 176 C 164.320 179.575, 164.502 181.037, 164.723 179.250 C 164.945 177.463, 164.945 174.537, 164.723 172.750 C 164.502 170.963, 164.320 172.425, 164.320 176 M 161.383 217.443 C 160.684 219.267, 153.456 223.096, 152.439 222.182 C 152.021 221.807, 151.973 222.013, 152.331 222.641 C 152.690 223.268, 151.823 224.541, 150.405 225.471 C 147.245 227.541, 147.787 228.530, 151.101 226.742 C 157.431 223.329, 161.779 219.955, 162.271 218.073 C 162.886 215.720, 162.225 215.251, 161.383 217.443 M 143.726 229.001 C 142.227 230.180, 140.993 230.775, 140.985 230.323 C 140.976 229.870, 140.639 229.995, 140.235 230.601 C 139.081 232.328, 130.665 237.497, 129 237.500 C 128.175 237.501, 127.725 237.882, 128 238.346 C 128.631 239.412, 121.817 243.005, 120.596 242.250 C 120.098 241.943, 120.012 242.211, 120.405 242.845 C 120.858 243.579, 120.346 244, 119 244 C 117.835 244, 117.115 244.377, 117.400 244.839 C 117.881 245.616, 110.783 250.245, 109.898 249.731 C 109.679 249.604, 109.614 249.689, 109.754 249.921 C 110.053 250.415, 98.832 257.992, 97.795 257.997 C 97.408 257.999, 95.942 259.149, 94.537 260.554 C 93.132 261.958, 91.526 262.825, 90.967 262.480 C 90.408 262.134, 90.074 262.447, 90.225 263.176 C 90.376 263.904, 90.034 264.420, 89.464 264.321 C 88.895 264.223, 88.429 264.914, 88.429 265.857 C 88.429 266.836, 89.194 267.571, 90.214 267.571 C 91.196 267.571, 92 267.191, 92 266.727 C 92 266.262, 92.370 266.110, 92.822 266.390 C 93.274 266.669, 94.411 266.001, 95.348 264.906 C 96.303 263.791, 97.592 263.224, 98.277 263.618 C 98.949 264.004, 99.159 263.945, 98.742 263.486 C 97.788 262.435, 103.031 258.901, 104.342 259.711 C 104.874 260.040, 104.988 259.790, 104.595 259.155 C 104.149 258.432, 104.613 258, 105.834 258 C 106.908 258, 108.056 257.296, 108.386 256.437 C 108.716 255.577, 109.371 255.111, 109.841 255.402 C 110.312 255.693, 111.646 255.046, 112.807 253.965 C 113.967 252.884, 115.337 252, 115.851 252 C 116.365 252, 117.056 251.296, 117.386 250.437 C 117.716 249.577, 118.424 249.144, 118.960 249.475 C 119.496 249.807, 120.508 249.160, 121.208 248.039 C 121.908 246.917, 123.048 246, 123.741 246 C 124.433 246, 125 245.523, 125 244.941 C 125 244.359, 125.350 244.099, 125.779 244.363 C 126.207 244.628, 128.313 243.328, 130.458 241.474 C 132.603 239.620, 134.731 238.334, 135.186 238.615 C 135.642 238.897, 136.284 238.423, 136.614 237.563 C 136.944 236.704, 137.616 236, 138.107 236 C 138.598 236, 139.787 235.302, 140.750 234.448 C 141.713 233.595, 143.576 232.099, 144.892 231.124 C 146.208 230.149, 147.097 228.790, 146.868 228.104 C 146.574 227.223, 145.651 227.487, 143.726 229.001 M 400 308.500 C 398.136 309.875, 396.079 311, 395.428 311 C 394.777 311, 393.689 311.670, 393.009 312.489 C 392.329 313.308, 391.262 313.686, 390.637 313.329 C 390.012 312.972, 389.836 313.050, 390.246 313.502 C 391.294 314.659, 381.225 321.245, 379.725 320.383 C 379.051 319.996, 378.822 320.036, 379.216 320.472 C 380.268 321.637, 375.243 325.259, 373.760 324.405 C 373.067 324.006, 372.835 324.049, 373.244 324.500 C 374.174 325.527, 370.334 328.324, 369.067 327.542 C 368.556 327.226, 367.813 327.494, 367.415 328.138 C 366.963 328.869, 367.124 329.041, 367.845 328.595 C 368.480 328.203, 369 328.122, 369 328.415 C 369 329.041, 363.374 332.050, 362.260 332.020 C 361.842 332.009, 361.500 332.455, 361.500 333.012 C 361.500 334.398, 353.760 338.969, 352.613 338.261 C 352.106 337.947, 352.012 338.211, 352.405 338.845 C 353.052 339.894, 351.806 340.464, 349.676 340.094 C 349.222 340.015, 349.106 340.362, 349.417 340.866 C 350.193 342.122, 345.216 345.251, 343.817 344.387 C 343.188 343.998, 342.966 344.136, 343.314 344.699 C 343.928 345.693, 339.280 348.538, 337.676 348.150 C 337.222 348.040, 337.091 348.339, 337.385 348.814 C 337.990 349.793, 330.646 354.222, 329.648 353.481 C 329.291 353.216, 329.229 353.304, 329.508 353.675 C 330.152 354.530, 324.881 358.045, 323.881 357.427 C 323.473 357.174, 322.813 357.494, 322.415 358.138 C 321.920 358.939, 322.135 359.041, 323.095 358.463 C 324.276 357.751, 324.289 357.877, 323.177 359.249 C 322.432 360.167, 321.158 360.614, 320.263 360.271 C 319.276 359.892, 318.923 360.066, 319.333 360.730 C 320.089 361.954, 312.570 366.236, 311.516 365.182 C 311.140 364.807, 310.983 365.175, 311.167 366 C 311.371 366.920, 310.827 367.447, 309.761 367.363 C 308.804 367.288, 308.254 367.602, 308.539 368.063 C 309.265 369.237, 305.203 371.244, 303.825 370.392 C 303.148 369.973, 302.966 370.136, 303.373 370.795 C 304.219 372.163, 300.381 374.353, 298.825 373.392 C 298.178 372.992, 297.965 373.134, 298.329 373.723 C 299.174 375.091, 283.284 385.278, 281.712 384.375 C 281.045 383.993, 280.840 384.054, 281.256 384.512 C 282.210 385.564, 273.975 391.102, 272.662 390.291 C 272.128 389.961, 271.961 390.128, 272.291 390.662 C 272.621 391.196, 271.453 392.456, 269.696 393.462 C 264.387 396.502, 251.545 405.262, 250.843 406.325 C 250.131 407.400, 250.938 410.396, 251.726 409.607 C 251.990 409.343, 253.322 409.552, 254.687 410.071 C 257.575 411.169, 263.036 409.043, 266.871 405.328 C 268.175 404.065, 269.621 403.266, 270.084 403.552 C 270.548 403.839, 271.843 403.157, 272.964 402.036 C 274.084 400.916, 275.380 400, 275.845 400 C 276.310 400, 277.519 399.084, 278.532 397.965 C 279.545 396.845, 280.969 396.158, 281.696 396.437 C 282.423 396.716, 283.544 396.102, 284.187 395.072 C 284.852 394.008, 285.998 393.446, 286.842 393.770 C 287.806 394.139, 288.074 393.928, 287.605 393.170 C 287.205 392.522, 287.424 392, 288.097 392 C 288.765 392, 290.816 390.852, 292.656 389.449 C 294.495 388.046, 296 387.142, 296 387.439 C 296 387.737, 296.915 387.197, 298.032 386.240 C 299.150 385.283, 300.316 384.642, 300.623 384.817 C 300.931 384.991, 301.850 384.316, 302.665 383.317 C 303.555 382.226, 303.889 382.100, 303.500 383 C 303.143 383.825, 303.560 383.626, 304.426 382.559 C 305.292 381.491, 306.014 381.041, 306.030 381.559 C 306.047 382.076, 306.519 381.712, 307.080 380.750 C 307.641 379.788, 308.752 379, 309.550 379 C 310.347 379, 311.014 378.663, 311.031 378.250 C 311.049 377.837, 312.248 376.636, 313.696 375.579 C 315.397 374.338, 316.068 374.161, 315.590 375.079 C 315.184 375.861, 315.477 375.740, 316.241 374.812 C 317.005 373.883, 318.274 372.983, 319.062 372.812 C 319.849 372.640, 321.090 371.825, 321.821 371 C 323.001 369.667, 323.063 369.667, 322.377 371 C 321.953 371.825, 323.079 371.038, 324.880 369.250 C 327.925 366.227, 329.241 365.544, 331.324 365.906 C 331.778 365.985, 331.872 365.602, 331.533 365.054 C 331.195 364.507, 332.062 363.772, 333.459 363.421 C 334.857 363.070, 336 362.402, 336 361.936 C 336 361.470, 339.038 359.289, 342.750 357.089 C 346.462 354.889, 350.822 352.195, 352.438 351.102 C 354.053 350.008, 355.741 349.340, 356.188 349.616 C 356.634 349.892, 357 349.641, 357 349.059 C 357 348.477, 357.627 348, 358.393 348 C 359.159 348, 360.056 347.296, 360.386 346.437 C 360.716 345.577, 361.401 345.130, 361.908 345.443 C 362.414 345.756, 362.980 345.656, 363.165 345.220 C 363.845 343.613, 370.019 339.894, 371 340.500 C 371.558 340.845, 372.284 340.423, 372.614 339.563 C 372.944 338.704, 373.841 338, 374.607 338 C 375.373 338, 376 337.523, 376 336.941 C 376 336.359, 376.368 336.109, 376.818 336.387 C 377.268 336.666, 378.794 335.819, 380.210 334.506 C 381.626 333.193, 382.997 332.331, 383.257 332.590 C 383.517 332.850, 384.499 331.888, 385.439 330.453 C 386.473 328.874, 387.727 328.065, 388.612 328.405 C 389.417 328.714, 390.331 328.301, 390.643 327.489 C 390.954 326.676, 391.616 326.262, 392.112 326.569 C 392.608 326.876, 393.283 326.426, 393.612 325.569 C 393.941 324.712, 394.594 324.249, 395.064 324.540 C 395.534 324.830, 396.895 322.915, 398.088 320.284 C 399.280 317.653, 400.659 315.242, 401.151 314.927 C 401.644 314.611, 402.243 313.486, 402.484 312.427 C 402.724 311.367, 403.216 309.488, 403.577 308.250 C 404.402 305.421, 404.149 305.439, 400 308.500 M 380 343.218 C 380 343.648, 379.551 344, 379.002 344 C 378.454 344, 376.373 345.539, 374.378 347.421 C 372.152 349.521, 370.157 350.614, 369.212 350.251 C 368.259 349.885, 367.927 350.073, 368.340 350.742 C 368.982 351.779, 360.018 358.028, 357.320 358.423 C 356.626 358.525, 355.707 358.994, 355.279 359.465 C 354.850 359.936, 355.132 359.954, 355.905 359.506 C 356.879 358.940, 357.078 359.065, 356.553 359.914 C 356.138 360.586, 355.145 360.886, 354.347 360.580 C 353.537 360.269, 353.166 360.459, 353.507 361.011 C 354.067 361.918, 352.692 362.444, 350.676 362.094 C 350.222 362.015, 350.106 362.362, 350.417 362.866 C 351.193 364.122, 346.216 367.251, 344.817 366.387 C 344.148 365.973, 343.968 366.139, 344.373 366.795 C 344.776 367.447, 342.486 369.639, 338.778 372.149 C 318.898 385.610, 305.353 394.325, 304.306 394.329 C 303.649 394.331, 303.199 394.821, 303.306 395.417 C 303.413 396.012, 302.730 396.440, 301.789 396.368 C 300.848 396.295, 300.173 396.745, 300.289 397.368 C 300.405 397.990, 299.717 398.438, 298.761 398.363 C 297.804 398.288, 297.244 398.587, 297.517 399.027 C 297.790 399.468, 296.435 400.804, 294.506 401.996 C 292.578 403.188, 291 404.528, 291 404.975 C 291 406.542, 293.841 406.857, 294.418 405.354 C 294.739 404.518, 295.563 404.031, 296.251 404.273 C 296.938 404.515, 298.512 404.339, 299.750 403.881 C 301.011 403.415, 302 403.437, 302 403.931 C 302 404.416, 302.900 404.577, 304 404.290 C 305.100 404.002, 306 403.349, 306 402.840 C 306 402.330, 306.590 402.045, 307.312 402.206 C 308.509 402.474, 311.123 401.375, 322.345 395.882 C 324.459 394.847, 326.576 394, 327.050 394 C 327.524 394, 329.560 392.881, 331.574 391.514 C 333.589 390.147, 335.746 389.319, 336.369 389.675 C 336.991 390.030, 337.159 389.945, 336.742 389.486 C 335.788 388.435, 341.031 384.901, 342.342 385.711 C 342.874 386.040, 342.988 385.790, 342.595 385.155 C 342.203 384.520, 342.359 384, 342.941 384 C 344.653 384, 345.427 383.707, 346.715 382.571 C 349.814 379.840, 350.968 379, 351.624 379 C 352.850 379, 364.651 367.423, 368.689 362.260 C 370.086 360.473, 371.733 359.311, 372.361 359.670 C 372.988 360.028, 373.180 359.966, 372.788 359.532 C 371.751 358.383, 379.005 349.896, 380.362 350.671 C 380.988 351.028, 381.175 350.961, 380.778 350.522 C 380.381 350.082, 381.168 348.400, 382.528 346.784 C 385.654 343.069, 385.648 341.969, 382.500 342.229 C 381.125 342.343, 380 342.788, 380 343.218 M 261.606 344.584 C 261.233 345.557, 261.456 346.015, 262.187 345.771 C 263.682 345.273, 264.505 343, 263.190 343 C 262.653 343, 261.941 343.713, 261.606 344.584 M 122.627 357.860 C 121.005 359.652, 121.068 359.680, 124.414 358.633 C 126.612 357.945, 127.447 357.269, 126.692 356.789 C 124.950 355.681, 124.489 355.802, 122.627 357.860" stroke="none" fill="#c40b13" fill-rule="evenodd"/></svg>